<?xml version="1.0" encoding="UTF-8"?>
<svg xmlns="http://www.w3.org/2000/svg" xmlns:xlink="http://www.w3.org/1999/xlink" width="180px" height="74px" viewBox="0 0 180 74" version="1.1">
<g id="surface1">
<path style=" stroke:none;fill-rule:nonzero;fill:rgb(0%,0%,0%);fill-opacity:1;" d="M 120.78125 22.984375 C 117.035156 23.902344 116.28125 24.464844 116.28125 26.402344 C 116.28125 27.574219 116.460938 28.03125 117.359375 29.125 C 118.621094 30.695312 118.621094 30.636719 117.792969 30.636719 C 116.425781 30.636719 116.28125 30.902344 116.28125 33.625 C 116.28125 35.683594 116.386719 36.261719 116.746094 36.261719 C 117.828125 36.261719 118.078125 35.890625 118.078125 34.292969 C 118.078125 32.679688 118.078125 32.679688 118.90625 32.765625 C 119.375 32.8125 120.707031 32.886719 121.859375 32.945312 C 123.046875 33.003906 124.453125 33.167969 124.992188 33.316406 C 125.496094 33.476562 126.109375 33.597656 126.324219 33.597656 C 126.539062 33.597656 126.71875 33.65625 126.71875 33.742188 C 126.71875 33.816406 126.9375 33.890625 127.1875 33.890625 C 127.621094 33.890625 129.851562 34.277344 131.398438 34.617188 C 131.6875 34.675781 132.226562 34.957031 132.550781 35.238281 C 133.09375 35.652344 133.199219 36.140625 133.199219 37.917969 L 133.199219 40.109375 L 135 40.109375 L 135 38.332031 C 135 36.792969 135.109375 36.46875 135.863281 35.757812 C 136.332031 35.3125 137.125 34.867188 137.59375 34.765625 C 139.570312 34.320312 142.957031 34.1875 146.699219 34.394531 C 150.445312 34.617188 150.085938 34.410156 150.191406 36.363281 C 150.300781 37.886719 150.371094 38.109375 150.949219 38.15625 C 151.523438 38.199219 151.558594 37.945312 151.558594 34.410156 L 151.558594 30.621094 L 150.589844 29.925781 C 150.046875 29.539062 149.183594 29.039062 148.679688 28.785156 C 146.339844 27.644531 141.445312 25.648438 139.320312 24.996094 C 136.546875 24.140625 131.6875 23.089844 130.464844 23.089844 C 129.996094 23.089844 129.601562 23.015625 129.601562 22.941406 C 129.601562 22.71875 121.679688 22.761719 120.78125 22.984375 Z M 130.570312 23.902344 C 132.085938 24.109375 133.777344 24.421875 134.316406 24.566406 C 134.855469 24.730469 135.394531 24.863281 135.503906 24.863281 C 135.757812 24.863281 136.078125 24.96875 139.5 26.136719 C 145.90625 28.34375 151.308594 31.226562 149.003906 31.226562 C 148.824219 31.226562 148.246094 31.066406 147.742188 30.859375 C 147.238281 30.652344 146.699219 30.488281 146.519531 30.488281 C 145.980469 30.488281 144.71875 29.867188 144.71875 29.585938 C 144.71875 29.023438 141.804688 27.363281 139.824219 26.804688 C 138.636719 26.460938 136.042969 26.386719 134.566406 26.625 C 134.101562 26.699219 132.984375 26.847656 132.046875 26.949219 C 131.074219 27.070312 130.320312 27.203125 130.320312 27.261719 C 130.320312 27.320312 129.816406 27.378906 129.167969 27.378906 C 128.050781 27.378906 126.035156 27.585938 124.847656 27.839844 C 124.488281 27.914062 123.839844 27.972656 123.371094 27.972656 C 122.902344 27.972656 122.363281 28.046875 122.113281 28.148438 C 121.175781 28.535156 120.78125 28.015625 120.78125 26.375 C 120.78125 24.9375 120.851562 24.746094 121.609375 24.347656 C 122.074219 24.09375 122.796875 23.828125 123.226562 23.722656 C 124.523438 23.429688 127.65625 23.503906 130.570312 23.902344 Z M 118.332031 26.890625 C 118.222656 27.039062 118.152344 26.949219 118.152344 26.714844 C 118.152344 26.460938 118.222656 26.359375 118.332031 26.449219 C 118.402344 26.550781 118.402344 26.757812 118.332031 26.890625 Z M 138.996094 27.542969 C 140.21875 27.898438 142.921875 29.46875 142.921875 29.820312 C 142.921875 30.074219 142.234375 30.207031 139.679688 30.488281 C 138.78125 30.589844 137.773438 30.726562 137.410156 30.8125 C 136.585938 30.976562 136.765625 31.050781 135.574219 30.042969 C 135.035156 29.601562 133.957031 28.933594 133.128906 28.5625 L 131.6875 27.914062 L 132.695312 27.734375 C 136.117188 27.15625 137.554688 27.113281 138.996094 27.542969 Z M 118.691406 27.707031 C 118.585938 27.824219 118.476562 27.78125 118.476562 27.617188 C 118.441406 27.453125 118.546875 27.363281 118.65625 27.425781 C 118.765625 27.46875 118.800781 27.601562 118.691406 27.707031 Z M 131.039062 28.890625 C 132.910156 29.675781 134.28125 30.5625 134.28125 31.007812 C 134.28125 31.140625 133.957031 31.226562 133.378906 31.226562 C 132.875 31.226562 132.480469 31.289062 132.480469 31.375 C 132.480469 31.449219 131.941406 31.523438 131.257812 31.523438 C 130.570312 31.523438 129.886719 31.582031 129.78125 31.671875 C 129.671875 31.746094 128.988281 31.820312 128.304688 31.820312 C 127.621094 31.820312 127.078125 31.746094 127.078125 31.671875 C 127.078125 31.582031 126.898438 31.523438 126.71875 31.523438 C 126.253906 31.523438 124.632812 30.859375 123.335938 30.164062 C 122.074219 29.46875 122.183594 28.992188 123.660156 28.816406 C 124.273438 28.742188 125.027344 28.625 125.351562 28.550781 C 125.710938 28.476562 126.359375 28.414062 126.792969 28.414062 C 127.261719 28.414062 127.871094 28.34375 128.160156 28.269531 C 128.988281 28.046875 129.058594 28.0625 131.039062 28.890625 Z M 119.484375 28.859375 C 119.484375 29.007812 119.375 28.976562 119.160156 28.785156 C 118.726562 28.386719 118.726562 28.148438 119.160156 28.414062 C 119.339844 28.535156 119.484375 28.742188 119.484375 28.859375 Z M 120.851562 30.074219 C 121.464844 30.546875 121.824219 30.886719 121.644531 30.84375 C 121.285156 30.753906 119.519531 29.394531 119.519531 29.214844 C 119.519531 29.050781 119.664062 29.140625 120.851562 30.074219 Z M 145.726562 31.226562 C 147.671875 31.714844 147.707031 31.703125 139.894531 32.558594 C 135.433594 33.046875 134.101562 33.078125 131.761719 32.679688 L 130.5 32.457031 L 134.101562 32.011719 C 136.078125 31.746094 138.671875 31.433594 139.859375 31.300781 C 141.046875 31.167969 142.199219 31.035156 142.378906 31.007812 C 143.351562 30.871094 144.648438 30.960938 145.726562 31.226562 Z M 126.539062 32.472656 C 127.945312 32.855469 129.492188 33.210938 130.066406 33.253906 C 130.96875 33.328125 131.472656 33.597656 130.679688 33.597656 C 129.3125 33.597656 122.761719 31.746094 122.761719 31.347656 C 122.761719 31.257812 123.046875 31.316406 123.40625 31.480469 C 123.730469 31.640625 125.171875 32.085938 126.539062 32.472656 Z M 119.878906 31.671875 C 119.878906 31.746094 120.132812 31.820312 120.421875 31.820312 C 120.707031 31.820312 120.960938 31.878906 120.960938 31.96875 C 120.960938 32.160156 120.203125 32.160156 119.015625 31.96875 C 117.828125 31.789062 117.792969 31.523438 118.980469 31.523438 C 119.484375 31.523438 119.878906 31.582031 119.878906 31.671875 Z M 146.519531 32.738281 C 143.746094 33.269531 141.984375 33.492188 138.167969 33.804688 C 134.820312 34.085938 134.566406 34.085938 135.71875 33.816406 C 136.222656 33.699219 137.230469 33.609375 137.953125 33.597656 C 138.671875 33.597656 139.390625 33.523438 139.5 33.449219 C 139.609375 33.359375 140.039062 33.300781 140.4375 33.300781 C 141.15625 33.300781 145.296875 32.8125 146.699219 32.558594 C 148.210938 32.292969 148.066406 32.441406 146.519531 32.738281 Z M 150.121094 33.449219 C 150.121094 33.683594 149.867188 33.742188 148.859375 33.742188 C 147.421875 33.742188 147.058594 33.359375 148.429688 33.253906 C 149.941406 33.136719 150.121094 33.152344 150.121094 33.449219 Z M 133.921875 33.742188 C 133.921875 33.90625 133.414062 33.90625 132.121094 33.742188 C 131.328125 33.640625 131.363281 33.625 132.589844 33.609375 C 133.308594 33.597656 133.921875 33.65625 133.921875 33.742188 Z M 133.921875 33.742188 "/>
<path style=" stroke:none;fill-rule:nonzero;fill:rgb(0%,0%,0%);fill-opacity:1;" d="M 83.230469 23.621094 C 83.304688 23.8125 83.808594 23.929688 84.925781 24.003906 C 85.789062 24.066406 86.578125 24.140625 86.652344 24.183594 C 86.902344 24.285156 84.742188 24.714844 84.023438 24.714844 C 83.699219 24.714844 82.1875 24.953125 80.675781 25.261719 C 77.507812 25.886719 74.410156 27.070312 73.042969 28.207031 C 72.179688 28.917969 72.179688 29.007812 72.070312 33.328125 L 71.964844 37.738281 L 73.726562 37.738281 C 75.203125 37.738281 75.5625 37.695312 75.707031 37.445312 C 75.886719 37.148438 76.210938 37.148438 91.90625 37.148438 C 107.640625 37.148438 107.964844 37.148438 108.179688 37.445312 C 108.359375 37.679688 108.71875 37.738281 110.195312 37.738281 L 111.996094 37.738281 L 111.886719 33.328125 L 111.78125 28.933594 L 110.699219 28.121094 C 110.125 27.675781 108.828125 26.964844 107.820312 26.566406 C 105.984375 25.796875 101.410156 24.714844 99.972656 24.714844 C 99.539062 24.703125 98.605469 24.582031 97.921875 24.433594 L 96.660156 24.152344 L 98.460938 24.050781 C 100.152344 23.945312 100.765625 23.785156 100.800781 23.472656 C 100.800781 23.339844 98.855469 23.414062 95.578125 23.695312 C 94.390625 23.785156 92.773438 23.871094 91.980469 23.871094 C 91.1875 23.871094 89.566406 23.785156 88.378906 23.695312 C 87.191406 23.589844 85.5 23.472656 84.671875 23.429688 C 83.269531 23.355469 83.125 23.382812 83.230469 23.621094 Z M 95.003906 24.953125 C 96.695312 25.085938 99.070312 25.382812 100.296875 25.617188 C 102.601562 26.078125 104.867188 26.875 104.652344 27.144531 C 104.542969 27.261719 100.65625 27.320312 91.871094 27.351562 C 80.351562 27.378906 79.199219 27.363281 79.199219 27.144531 C 79.199219 26.804688 81.144531 26.136719 83.519531 25.648438 C 85.105469 25.324219 89.53125 24.820312 91.585938 24.730469 C 91.765625 24.714844 93.3125 24.820312 95.003906 24.953125 Z M 76.105469 27.792969 C 75.886719 27.855469 75.601562 28.089844 75.457031 28.34375 C 75.3125 28.578125 75.023438 29.050781 74.808594 29.378906 C 74.59375 29.703125 74.339844 31.597656 74.195312 33.597656 C 74.050781 35.890625 73.835938 37.207031 73.621094 37.175781 C 73.402344 37.164062 73.261719 35.757812 73.261719 33.328125 C 73.261719 29.613281 73.296875 29.511719 74.125 28.785156 C 75.097656 27.957031 75.960938 27.484375 76.285156 27.601562 C 76.390625 27.660156 76.320312 27.734375 76.105469 27.792969 Z M 109.402344 28.488281 C 109.691406 28.726562 110.089844 29.097656 110.304688 29.289062 C 110.808594 29.746094 110.84375 37.132812 110.339844 37.175781 C 110.125 37.207031 109.90625 35.917969 109.765625 33.671875 C 109.621094 31.714844 109.367188 29.820312 109.152344 29.453125 C 108.359375 28.074219 108.253906 27.972656 107.964844 27.882812 C 107.785156 27.839844 107.640625 27.734375 107.640625 27.660156 C 107.640625 27.425781 108.863281 28 109.402344 28.488281 Z M 105.769531 29.40625 C 105.804688 30.25 105.730469 30.933594 105.550781 30.933594 C 105.371094 30.933594 104.6875 30.8125 104.003906 30.664062 C 102.960938 30.445312 101.449219 30.414062 92.878906 30.371094 C 83.269531 30.324219 79.199219 30.445312 79.199219 30.796875 C 79.199219 30.871094 78.949219 30.933594 78.660156 30.933594 C 78.226562 30.933594 78.121094 30.664062 78.121094 29.480469 C 78.121094 28.683594 78.226562 27.972656 78.371094 27.925781 C 78.515625 27.867188 84.707031 27.839844 92.125 27.855469 L 105.660156 27.898438 Z M 76.644531 32.398438 C 76.714844 35.015625 78.625 35.636719 87.515625 35.964844 C 94.175781 36.199219 101.953125 35.859375 104.398438 35.238281 C 106.632812 34.660156 107.28125 33.980469 107.316406 32.058594 C 107.351562 31.152344 107.496094 30.25 107.640625 30.042969 C 107.820312 29.835938 107.929688 31.152344 107.964844 33.121094 L 108 36.554688 L 91.90625 36.527344 L 75.78125 36.480469 L 75.671875 34.039062 C 75.601562 32.691406 75.671875 31.167969 75.816406 30.636719 L 76.105469 29.675781 L 76.355469 30.339844 C 76.5 30.710938 76.644531 31.628906 76.644531 32.398438 Z M 103.140625 31.140625 C 104.328125 31.347656 105.226562 31.777344 105.625 32.339844 C 105.910156 32.738281 105.480469 32.960938 104.292969 33.078125 C 103.355469 33.179688 103.320312 33.167969 103.320312 32.621094 C 103.320312 31.640625 102.742188 31.523438 97.738281 31.523438 C 94.824219 31.523438 93.238281 31.582031 92.953125 31.703125 C 92.699219 31.804688 92.519531 32.191406 92.519531 32.574219 C 92.519531 32.960938 92.410156 33.375 92.304688 33.507812 C 91.871094 33.964844 91.441406 33.566406 91.441406 32.707031 C 91.441406 31.996094 91.296875 31.804688 90.757812 31.671875 C 90.359375 31.597656 88.199219 31.523438 85.894531 31.523438 C 81.144531 31.523438 80.640625 31.628906 80.640625 32.574219 C 80.640625 33.195312 80.171875 33.300781 78.804688 33.003906 C 77.398438 32.679688 78.550781 31.523438 80.640625 31.167969 C 82.441406 30.859375 101.339844 30.828125 103.140625 31.140625 Z M 90 32.929688 L 90 33.742188 L 87.625 33.742188 C 86.292969 33.742188 84.601562 33.671875 83.84375 33.566406 C 82.476562 33.402344 82.441406 33.375 82.441406 32.753906 L 82.441406 32.117188 L 90 32.117188 Z M 101.519531 32.753906 C 101.519531 33.375 101.484375 33.402344 100.117188 33.566406 C 99.359375 33.671875 97.667969 33.742188 96.335938 33.742188 L 93.960938 33.742188 L 93.960938 32.117188 L 101.519531 32.117188 Z M 84.421875 34.171875 C 90.683594 34.660156 95.796875 34.558594 104.507812 33.804688 C 105.695312 33.683594 105.730469 33.847656 104.652344 34.351562 C 103.140625 35.0625 99.179688 35.386719 91.980469 35.386719 C 84.492188 35.386719 80.28125 35.015625 79.054688 34.277344 C 78.265625 33.773438 78.335938 33.699219 79.488281 33.789062 C 80.027344 33.832031 82.261719 34.011719 84.421875 34.171875 Z M 84.421875 34.171875 "/>
<path style=" stroke:none;fill-rule:nonzero;fill:rgb(0%,0%,0%);fill-opacity:1;" d="M 30.601562 25.8125 C 30.601562 26.476562 30.707031 26.609375 31.320312 26.683594 C 31.96875 26.757812 32.003906 26.847656 31.824219 27.765625 C 31.679688 28.328125 31.464844 29.050781 31.285156 29.378906 C 31.066406 29.703125 30.816406 31.6875 30.707031 33.773438 L 30.492188 37.59375 L 36.070312 37.59375 L 35.855469 34.734375 C 35.746094 33.179688 35.53125 31.359375 35.316406 30.710938 C 34.957031 29.4375 34.523438 27.011719 34.777344 27.75 C 34.921875 28.089844 35.242188 28.253906 36 28.371094 L 37.078125 28.535156 L 37.078125 31.789062 C 37.078125 33.582031 37.1875 35.148438 37.296875 35.28125 C 37.476562 35.492188 38.953125 35.519531 49.894531 35.519531 L 62.28125 35.519531 L 62.28125 37.59375 L 67.679688 37.59375 L 67.679688 36.347656 C 67.679688 35.652344 67.464844 34.855469 67.175781 34.511719 C 66.167969 33.359375 65.878906 31.789062 66.277344 30.101562 C 66.492188 29.230469 66.886719 28.371094 67.175781 28.179688 C 67.570312 27.941406 67.679688 27.5 67.609375 26.476562 L 67.5 25.085938 L 49.066406 25.042969 L 30.601562 25.011719 Z M 34.558594 25.679688 C 34.558594 25.824219 34.164062 25.898438 33.300781 25.898438 C 32.4375 25.898438 32.039062 25.824219 32.039062 25.679688 C 32.039062 25.53125 32.4375 25.457031 33.300781 25.457031 C 34.164062 25.457031 34.558594 25.53125 34.558594 25.679688 Z M 65.878906 26.582031 L 65.878906 27.691406 L 64.726562 27.644531 C 63.757812 27.617188 63.539062 27.527344 63.324219 27.144531 C 62.964844 26.402344 62.746094 26.34375 60.300781 26.34375 C 58.320312 26.34375 57.925781 26.386719 57.457031 26.667969 C 57.132812 26.847656 56.878906 27.15625 56.878906 27.335938 C 56.878906 27.574219 56.664062 27.675781 56.195312 27.675781 C 54.972656 27.675781 54.359375 27.5 54.359375 27.15625 C 54.359375 26.417969 54.070312 26.34375 51.445312 26.34375 L 48.925781 26.34375 L 48.238281 27.023438 C 47.664062 27.574219 47.375 27.691406 46.726562 27.644531 C 46.152344 27.617188 45.863281 27.484375 45.792969 27.230469 C 45.539062 26.550781 44.746094 26.34375 42.300781 26.34375 C 39.816406 26.34375 39.382812 26.460938 39.167969 27.15625 C 39.058594 27.542969 38.914062 27.601562 37.980469 27.601562 L 36.898438 27.601562 L 36.792969 26.523438 L 36.683594 25.457031 L 65.878906 25.457031 Z M 43.703125 27.660156 C 43.957031 28.296875 44.460938 28.414062 47.050781 28.414062 C 49.210938 28.414062 49.644531 28.296875 49.894531 27.660156 C 50.113281 27.128906 50.21875 27.085938 51.335938 27.085938 C 52.453125 27.085938 52.558594 27.128906 52.558594 27.511719 C 52.558594 28.164062 53.386719 28.414062 55.621094 28.414062 C 58.355469 28.414062 58.679688 28.34375 58.679688 27.660156 C 58.679688 27.085938 58.679688 27.085938 60.121094 27.085938 L 61.558594 27.085938 L 61.558594 31.375 L 38.878906 31.375 L 38.878906 29.910156 C 38.878906 28.476562 38.878906 28.445312 39.78125 28.355469 C 40.355469 28.296875 40.753906 28.136719 40.894531 27.855469 C 41.257812 27.128906 41.363281 27.085938 42.40625 27.085938 C 43.34375 27.085938 43.488281 27.144531 43.703125 27.660156 Z M 65.699219 32.707031 C 65.953125 33.980469 65.914062 34.097656 65.410156 33.890625 C 64.835938 33.65625 64.621094 32.558594 64.800781 30.5625 L 64.90625 29.527344 L 65.160156 30.414062 C 65.304688 30.902344 65.554688 31.9375 65.699219 32.707031 Z M 33.984375 34.929688 L 34.019531 37.222656 L 33.011719 37.265625 L 32.003906 37.3125 L 32.148438 34.898438 C 32.21875 33.566406 32.507812 31.953125 32.796875 31.300781 L 33.300781 30.117188 L 33.625 31.375 C 33.804688 32.070312 33.984375 33.671875 33.984375 34.929688 Z M 62.207031 32.203125 C 62.890625 32.292969 63 32.398438 63 33.019531 L 63 33.742188 L 41.398438 33.742188 L 41.398438 33.109375 C 41.398438 32.753906 41.578125 32.398438 41.832031 32.292969 C 42.15625 32.160156 44.855469 32.117188 51.839844 32.117188 C 57.097656 32.117188 61.738281 32.160156 62.207031 32.203125 Z M 39.671875 33.253906 C 39.78125 34.128906 39.886719 34.277344 40.609375 34.425781 C 41.976562 34.707031 41.941406 34.78125 40.390625 34.78125 L 38.878906 34.78125 L 38.878906 33.523438 C 38.878906 32.027344 39.527344 31.820312 39.671875 33.253906 Z M 64.441406 34.632812 C 64.441406 34.722656 60.730469 34.78125 54 34.78125 C 47.269531 34.78125 43.558594 34.722656 43.558594 34.632812 C 43.558594 34.542969 47.269531 34.484375 54 34.484375 C 60.730469 34.484375 64.441406 34.542969 64.441406 34.632812 Z M 65.878906 36.261719 C 65.878906 37.265625 65.84375 37.296875 64.980469 37.296875 C 64.117188 37.296875 64.078125 37.25 64.078125 36.40625 C 64.078125 35.625 64.152344 35.519531 64.800781 35.519531 C 65.195312 35.519531 65.519531 35.445312 65.519531 35.371094 C 65.519531 35.28125 65.59375 35.222656 65.699219 35.222656 C 65.808594 35.222656 65.878906 35.683594 65.878906 36.261719 Z M 65.878906 36.261719 "/>
<path style=" stroke:none;fill-rule:nonzero;fill:rgb(0%,0%,0%);fill-opacity:1;" d="M 23.398438 46.398438 C 23.398438 48.882812 23.4375 48.988281 24.121094 48.988281 C 24.769531 48.988281 24.839844 48.882812 24.839844 47.878906 L 24.839844 46.769531 L 26.207031 46.769531 C 27.503906 46.769531 27.613281 46.8125 29.089844 47.878906 C 30.167969 48.675781 30.816406 48.988281 31.320312 48.988281 C 31.714844 48.988281 32.039062 48.957031 32.039062 48.914062 C 32.039062 48.882812 31.320312 48.367188 30.457031 47.773438 L 28.835938 46.695312 L 29.699219 46.488281 C 30.707031 46.234375 31.320312 45.730469 31.320312 45.167969 C 31.320312 44.253906 29.410156 43.808594 25.488281 43.808594 L 23.398438 43.808594 Z M 28.332031 44.414062 C 29.554688 44.605469 29.878906 44.785156 29.878906 45.390625 C 29.878906 46.011719 28.800781 46.324219 26.566406 46.324219 L 24.839844 46.324219 L 24.839844 44.253906 L 26.0625 44.253906 C 26.746094 44.253906 27.757812 44.324219 28.332031 44.414062 Z M 28.332031 44.414062 "/>
<path style=" stroke:none;fill-rule:nonzero;fill:rgb(0%,0%,0%);fill-opacity:1;" d="M 36.359375 46.398438 L 36.359375 48.988281 L 39.78125 48.988281 C 42.550781 48.988281 43.199219 48.945312 43.199219 48.765625 C 43.199219 48.601562 42.550781 48.542969 40.429688 48.515625 L 37.621094 48.46875 L 37.621094 46.546875 L 40.246094 46.5 C 42.226562 46.472656 42.839844 46.414062 42.839844 46.25 C 42.839844 46.074219 42.265625 46.027344 40.140625 46.027344 L 37.402344 46.027344 L 37.511719 45.167969 L 37.621094 44.324219 L 40.429688 44.28125 C 42.550781 44.253906 43.199219 44.191406 43.199219 44.03125 C 43.199219 43.851562 42.550781 43.808594 39.78125 43.808594 L 36.359375 43.808594 Z M 36.359375 46.398438 "/>
<path style=" stroke:none;fill-rule:nonzero;fill:rgb(0%,0%,0%);fill-opacity:1;" d="M 47.878906 46.398438 L 47.878906 48.988281 L 51.300781 48.988281 C 54.070312 48.988281 54.71875 48.945312 54.71875 48.765625 C 54.71875 48.601562 54.109375 48.542969 52.128906 48.515625 L 49.5 48.46875 L 49.390625 46.132812 C 49.320312 43.925781 49.246094 43.808594 48.601562 43.808594 C 47.914062 43.808594 47.878906 43.910156 47.878906 46.398438 Z M 47.878906 46.398438 "/>
<path style=" stroke:none;fill-rule:nonzero;fill:rgb(0%,0%,0%);fill-opacity:1;" d="M 61.957031 44.132812 C 61.777344 44.324219 60.660156 45.496094 59.472656 46.722656 C 57.636719 48.664062 57.421875 48.988281 57.960938 48.988281 C 58.390625 48.988281 58.859375 48.738281 59.398438 48.175781 L 60.191406 47.359375 L 65.410156 47.359375 L 66.132812 48.128906 C 66.636719 48.691406 67.066406 48.929688 67.609375 48.957031 C 68.292969 49.003906 68.148438 48.808594 66.167969 46.738281 C 64.980469 45.496094 63.863281 44.324219 63.683594 44.132812 C 63.503906 43.957031 63.144531 43.808594 62.820312 43.808594 C 62.496094 43.808594 62.136719 43.957031 61.957031 44.132812 Z M 63.863281 45.644531 C 64.367188 46.191406 64.800781 46.679688 64.800781 46.707031 C 64.800781 46.738281 63.898438 46.769531 62.785156 46.769531 C 61.308594 46.769531 60.804688 46.722656 60.949219 46.574219 C 61.019531 46.488281 61.488281 45.984375 61.921875 45.464844 C 62.386719 44.960938 62.785156 44.5625 62.855469 44.578125 C 62.890625 44.605469 63.359375 45.082031 63.863281 45.644531 Z M 63.863281 45.644531 "/>
<path style=" stroke:none;fill-rule:nonzero;fill:rgb(0%,0%,0%);fill-opacity:1;" d="M 70.921875 43.898438 C 70.921875 43.941406 71.53125 44.355469 72.289062 44.8125 C 74.773438 46.324219 74.734375 46.207031 72.9375 47.34375 C 70.523438 48.882812 70.414062 48.988281 71.171875 48.988281 C 71.605469 48.988281 72.46875 48.574219 73.585938 47.847656 C 75.527344 46.5625 75.167969 46.546875 77.507812 48.085938 C 78.445312 48.722656 79.054688 48.988281 79.597656 48.988281 C 80.0625 48.988281 80.242188 48.929688 80.0625 48.796875 C 79.882812 48.707031 78.984375 48.113281 78.046875 47.507812 C 77.113281 46.902344 76.320312 46.324219 76.320312 46.25 C 76.320312 46.160156 76.859375 45.761719 77.507812 45.363281 C 80.207031 43.71875 80.101562 43.808594 79.308594 43.808594 C 78.839844 43.808594 78.085938 44.148438 76.96875 44.859375 L 75.347656 45.910156 L 73.765625 44.859375 C 72.792969 44.191406 71.964844 43.808594 71.566406 43.808594 C 71.207031 43.808594 70.921875 43.835938 70.921875 43.898438 Z M 70.921875 43.898438 "/>
<path style=" stroke:none;fill-rule:nonzero;fill:rgb(0%,0%,0%);fill-opacity:1;" d="M 93.023438 44.105469 C 91.007812 44.519531 90 45.289062 90 46.414062 C 90 48.128906 92.015625 48.988281 96.085938 48.988281 C 100.152344 48.988281 100.078125 49.003906 100.078125 47.566406 L 100.078125 46.324219 L 98.101562 46.324219 C 96.589844 46.324219 96.121094 46.367188 96.121094 46.546875 C 96.121094 46.707031 96.515625 46.769531 97.558594 46.769531 L 99 46.769531 L 99 47.566406 C 99 48.457031 98.785156 48.542969 96.445312 48.542969 C 93.097656 48.542969 91.441406 47.847656 91.441406 46.441406 C 91.441406 45.480469 91.980469 45.035156 93.601562 44.578125 C 94.644531 44.296875 95.183594 44.238281 96.660156 44.296875 C 97.667969 44.324219 98.746094 44.414062 99.109375 44.472656 C 99.574219 44.546875 99.71875 44.503906 99.71875 44.28125 C 99.71875 43.734375 95.4375 43.617188 93.023438 44.105469 Z M 93.023438 44.105469 "/>
<path style=" stroke:none;fill-rule:nonzero;fill:rgb(0%,0%,0%);fill-opacity:1;" d="M 107.820312 43.941406 C 105.875 44.296875 104.761719 45.199219 104.761719 46.414062 C 104.761719 47.359375 105.371094 48.027344 106.738281 48.542969 C 107.566406 48.871094 108.035156 48.914062 110.339844 48.914062 C 112.644531 48.914062 113.113281 48.871094 113.941406 48.542969 C 115.453125 47.96875 115.921875 47.464844 115.921875 46.398438 C 115.921875 45.347656 115.453125 44.828125 113.976562 44.253906 C 113.21875 43.972656 112.570312 43.882812 110.773438 43.851562 C 109.546875 43.824219 108.214844 43.867188 107.820312 43.941406 Z M 113.074219 44.667969 C 114.371094 45.140625 114.839844 45.953125 114.445312 47.050781 C 114.046875 48.234375 111.382812 48.839844 108.574219 48.394531 C 105.445312 47.90625 105.371094 44.917969 108.46875 44.398438 C 110.125 44.132812 111.886719 44.238281 113.074219 44.667969 Z M 113.074219 44.667969 "/>
<path style=" stroke:none;fill-rule:nonzero;fill:rgb(0%,0%,0%);fill-opacity:1;" d="M 120.960938 46.398438 C 120.960938 48.882812 120.996094 48.988281 121.679688 48.988281 C 122.328125 48.988281 122.398438 48.882812 122.398438 47.863281 L 122.398438 46.753906 L 123.730469 46.796875 C 124.957031 46.84375 125.171875 46.914062 126.359375 47.773438 C 127.945312 48.882812 128.269531 49.03125 129.023438 48.957031 C 129.527344 48.929688 129.3125 48.707031 127.980469 47.820312 L 126.324219 46.707031 L 127.402344 46.367188 C 128.773438 45.925781 129.167969 45.199219 128.375 44.578125 C 127.691406 44.03125 126.109375 43.808594 123.046875 43.808594 L 120.960938 43.808594 Z M 126.757812 44.636719 C 127.65625 44.960938 127.621094 45.65625 126.71875 46.027344 C 126.179688 46.25 125.53125 46.324219 124.199219 46.324219 L 122.398438 46.324219 L 122.398438 44.207031 L 124.234375 44.296875 C 125.28125 44.355469 126.394531 44.503906 126.757812 44.636719 Z M 126.757812 44.636719 "/>
<path style=" stroke:none;fill-rule:nonzero;fill:rgb(0%,0%,0%);fill-opacity:1;" d="M 136.261719 43.941406 C 134.316406 44.296875 133.199219 45.199219 133.199219 46.414062 C 133.199219 47.359375 133.8125 48.027344 135.179688 48.542969 C 136.007812 48.871094 136.476562 48.914062 138.78125 48.914062 C 141.085938 48.914062 141.550781 48.871094 142.378906 48.542969 C 143.890625 47.96875 144.359375 47.464844 144.359375 46.398438 C 144.359375 45.347656 143.890625 44.828125 142.414062 44.253906 C 141.660156 43.972656 141.011719 43.882812 139.210938 43.851562 C 137.988281 43.824219 136.65625 43.867188 136.261719 43.941406 Z M 141.515625 44.667969 C 142.8125 45.140625 143.28125 45.953125 142.882812 47.050781 C 142.488281 48.234375 139.824219 48.839844 137.015625 48.394531 C 133.882812 47.90625 133.8125 44.917969 136.90625 44.398438 C 138.5625 44.132812 140.328125 44.238281 141.515625 44.667969 Z M 141.515625 44.667969 "/>
<path style=" stroke:none;fill-rule:nonzero;fill:rgb(0%,0%,0%);fill-opacity:1;" d="M 149.398438 46.382812 L 149.398438 48.988281 L 151.488281 48.988281 C 156.671875 48.988281 159.121094 48.160156 159.121094 46.398438 C 159.121094 44.652344 157.246094 43.941406 152.386719 43.835938 L 149.398438 43.761719 Z M 154.511719 44.398438 C 155.230469 44.488281 156.238281 44.753906 156.742188 45.007812 C 158.507812 45.851562 157.789062 47.757812 155.519531 48.246094 C 155.125 48.335938 153.828125 48.425781 152.710938 48.441406 L 150.660156 48.46875 L 150.550781 46.5625 C 150.515625 45.496094 150.550781 44.546875 150.625 44.445312 C 150.839844 44.207031 152.675781 44.191406 154.511719 44.398438 Z M 154.511719 44.398438 "/>
<path style=" stroke:none;fill-rule:nonzero;fill:rgb(0%,0%,0%);fill-opacity:1;" d="M 101.988281 51.875 C 101.988281 52.671875 102.023438 52.777344 102.203125 52.316406 C 102.382812 51.859375 102.5625 51.726562 103.140625 51.726562 C 103.714844 51.726562 103.894531 51.859375 104.074219 52.316406 L 104.328125 52.910156 L 104.257812 52.242188 C 104.21875 51.636719 104.148438 51.578125 103.320312 51.578125 C 102.671875 51.578125 102.347656 51.472656 102.203125 51.207031 C 102.058594 51 101.953125 51.296875 101.988281 51.875 Z M 101.988281 51.875 "/>
<path style=" stroke:none;fill-rule:nonzero;fill:rgb(0%,0%,0%);fill-opacity:1;" d="M 67.355469 51.976562 C 67.390625 52.496094 67.5 52.730469 67.570312 52.511719 C 67.679688 52.242188 67.96875 52.097656 68.472656 52.066406 C 70.308594 51.960938 70.054688 51.058594 68.183594 51.058594 C 67.355469 51.058594 67.320312 51.105469 67.355469 51.976562 Z M 69.300781 51.578125 C 69.300781 51.769531 69.011719 51.890625 68.507812 51.917969 C 67.824219 51.960938 67.679688 51.902344 67.679688 51.578125 C 67.679688 51.253906 67.824219 51.191406 68.507812 51.238281 C 69.011719 51.265625 69.300781 51.386719 69.300781 51.578125 Z M 69.300781 51.578125 "/>
<path style=" stroke:none;fill-rule:nonzero;fill:rgb(0%,0%,0%);fill-opacity:1;" d="M 98.171875 51.164062 C 97.597656 51.386719 97.992188 51.800781 98.929688 51.976562 C 100.222656 52.230469 100.1875 52.585938 98.820312 52.703125 C 97.8125 52.792969 97.8125 52.804688 98.640625 52.820312 C 100.546875 52.851562 101.015625 52.230469 99.359375 51.875 C 98.027344 51.59375 97.957031 51.253906 99.289062 51.164062 L 100.261719 51.105469 L 99.324219 51.074219 C 98.820312 51.074219 98.28125 51.105469 98.171875 51.164062 Z M 98.171875 51.164062 "/>
<path style=" stroke:none;fill-rule:nonzero;fill:rgb(0%,0%,0%);fill-opacity:1;" d="M 71.746094 51.609375 C 71.460938 51.652344 71.316406 51.917969 71.351562 52.289062 C 71.386719 52.894531 71.386719 52.894531 71.53125 52.390625 C 71.605469 52.109375 71.929688 51.785156 72.253906 51.679688 C 72.863281 51.503906 72.574219 51.460938 71.746094 51.609375 Z M 71.746094 51.609375 "/>
<path style=" stroke:none;fill-rule:nonzero;fill:rgb(0%,0%,0%);fill-opacity:1;" d="M 74.230469 51.679688 C 73.117188 52.140625 74.125 52.910156 75.671875 52.792969 C 76.429688 52.730469 76.429688 52.730469 75.5625 52.703125 C 75.023438 52.703125 74.519531 52.585938 74.375 52.464844 C 74.230469 52.304688 74.449219 52.242188 75.277344 52.242188 C 76.210938 52.242188 76.355469 52.199219 76.246094 51.902344 C 76.140625 51.535156 74.953125 51.386719 74.230469 51.679688 Z M 75.960938 51.875 C 75.960938 52.109375 74.699219 52.183594 74.375 51.960938 C 74.089844 51.785156 74.519531 51.652344 75.3125 51.652344 C 75.671875 51.652344 75.960938 51.753906 75.960938 51.875 Z M 75.960938 51.875 "/>
<path style=" stroke:none;fill-rule:nonzero;fill:rgb(0%,0%,0%);fill-opacity:1;" d="M 77.796875 52.230469 L 77.867188 52.910156 L 78.085938 52.316406 C 78.265625 51.859375 78.445312 51.726562 79.019531 51.726562 C 79.597656 51.726562 79.777344 51.84375 79.882812 52.316406 L 80.0625 52.910156 L 80.242188 52.316406 C 80.425781 51.859375 80.605469 51.726562 81.179688 51.726562 C 81.757812 51.726562 81.9375 51.859375 82.117188 52.316406 L 82.332031 52.910156 L 82.367188 52.390625 C 82.441406 51.636719 82.152344 51.535156 79.847656 51.546875 L 77.761719 51.5625 Z M 77.796875 52.230469 "/>
<path style=" stroke:none;fill-rule:nonzero;fill:rgb(0%,0%,0%);fill-opacity:1;" d="M 83.988281 52.171875 C 83.988281 52.570312 84.058594 52.730469 84.132812 52.496094 C 84.203125 52.273438 84.203125 51.949219 84.132812 51.753906 C 84.058594 51.578125 83.988281 51.753906 83.988281 52.171875 Z M 83.988281 52.171875 "/>
<path style=" stroke:none;fill-rule:nonzero;fill:rgb(0%,0%,0%);fill-opacity:1;" d="M 85.714844 51.902344 C 85.644531 52.570312 86.003906 52.835938 86.902344 52.820312 C 87.625 52.820312 87.625 52.804688 86.941406 52.703125 C 86.472656 52.628906 86.148438 52.390625 86.003906 52.007812 C 85.789062 51.472656 85.789062 51.460938 85.714844 51.902344 Z M 85.714844 51.902344 "/>
<path style=" stroke:none;fill-rule:nonzero;fill:rgb(0%,0%,0%);fill-opacity:1;" d="M 88.09375 52.050781 C 87.949219 52.363281 88.019531 52.671875 88.199219 52.746094 C 88.453125 52.851562 88.558594 52.644531 88.558594 52.199219 C 88.558594 51.355469 88.378906 51.3125 88.09375 52.050781 Z M 88.09375 52.050781 "/>
<path style=" stroke:none;fill-rule:nonzero;fill:rgb(0%,0%,0%);fill-opacity:1;" d="M 90.035156 52.230469 L 90.109375 52.910156 L 90.324219 52.316406 C 90.503906 51.859375 90.683594 51.726562 91.261719 51.726562 C 91.835938 51.726562 92.015625 51.859375 92.195312 52.316406 L 92.410156 52.910156 L 92.484375 52.347656 C 92.519531 51.753906 93.421875 51.445312 93.996094 51.816406 C 94.246094 51.976562 94.320312 51.976562 94.320312 51.769531 C 94.320312 51.578125 93.960938 51.535156 92.160156 51.546875 L 90 51.5625 Z M 90.035156 52.230469 "/>
<path style=" stroke:none;fill-rule:nonzero;fill:rgb(0%,0%,0%);fill-opacity:1;" d="M 106.09375 51.609375 C 105.695312 51.769531 105.804688 52.464844 106.273438 52.660156 C 107.496094 53.160156 109.222656 52.464844 108.394531 51.816406 C 108 51.519531 106.597656 51.386719 106.09375 51.609375 Z M 108.109375 51.949219 C 108.359375 52.332031 107.53125 52.761719 106.777344 52.644531 C 106.199219 52.554688 105.984375 51.949219 106.453125 51.753906 C 106.921875 51.546875 107.929688 51.667969 108.109375 51.949219 Z M 108.109375 51.949219 "/>
<path style=" stroke:none;fill-rule:nonzero;fill:rgb(0%,0%,0%);fill-opacity:1;" d="M 109.835938 52.539062 C 109.871094 53.367188 109.90625 53.429688 110.160156 52.984375 C 110.339844 52.703125 110.375 52.421875 110.304688 52.363281 C 109.871094 52.082031 110.59375 51.636719 111.347656 51.679688 C 112.535156 51.753906 112.644531 52.496094 111.527344 52.671875 C 111.023438 52.761719 110.914062 52.820312 111.277344 52.820312 C 112.03125 52.835938 112.679688 52.539062 112.679688 52.15625 C 112.679688 51.742188 111.925781 51.488281 110.734375 51.535156 C 109.835938 51.5625 109.800781 51.59375 109.835938 52.539062 Z M 109.835938 52.539062 "/>
</g>
</svg>
