<?xml version="1.0" standalone="no"?>
<!DOCTYPE svg PUBLIC "-//W3C//DTD SVG 20010904//EN"
 "http://www.w3.org/TR/2001/REC-SVG-20010904/DTD/svg10.dtd">
<svg version="1.0" xmlns="http://www.w3.org/2000/svg"
 width="500.000000pt" height="500.000000pt" viewBox="0 0 500.000000 500.000000"
 preserveAspectRatio="xMidYMid meet">

<g transform="translate(0.000000,500.000000) scale(0.100000,-0.100000)"
fill="#000000" stroke="none">
<path d="M3355 3447 c-104 -62 -125 -100 -125 -231 0 -79 5 -110 30 -184 35
-106 35 -102 12 -102 -38 0 -42 -18 -42 -202 0 -139 3 -178 13 -178 30 0 37
25 37 133 0 109 0 109 23 103 13 -3 50 -8 82 -12 33 -4 72 -15 87 -25 14 -11
31 -19 37 -19 6 0 11 -4 11 -10 0 -5 6 -10 13 -10 12 0 74 -26 117 -49 8 -4
23 -23 32 -42 15 -28 18 -61 18 -181 l0 -148 25 0 25 0 0 120 c0 104 3 126 24
174 13 30 35 60 48 67 55 30 149 39 253 25 104 -15 94 -1 97 -133 3 -103 5
-118 21 -121 16 -3 17 14 17 253 l0 256 -27 47 c-15 26 -39 60 -53 77 -65 77
-201 212 -260 256 -77 58 -212 129 -246 129 -13 0 -24 5 -24 10 0 15 -220 12
-245 -3z m272 -62 c42 -14 89 -35 104 -45 15 -11 30 -20 33 -20 7 0 16 -7 111
-86 178 -149 328 -344 264 -344 -5 0 -21 11 -35 25 -14 14 -29 25 -34 25 -15
0 -50 42 -50 61 0 38 -81 150 -136 188 -33 23 -105 28 -146 12 -13 -5 -44 -15
-70 -22 -27 -8 -48 -17 -48 -21 0 -4 -14 -8 -32 -8 -31 0 -87 -14 -120 -31
-10 -5 -28 -9 -41 -9 -13 0 -28 -5 -35 -12 -26 -26 -37 9 -37 120 0 97 2 110
23 137 13 17 33 35 45 42 36 20 123 15 204 -12z m-340 -202 c-3 -10 -5 -4 -5
12 0 17 2 24 5 18 2 -7 2 -21 0 -30z m574 -44 c34 -24 109 -130 109 -154 0
-17 -19 -26 -90 -45 -25 -7 -53 -16 -63 -22 -23 -11 -18 -16 -51 52 -15 30
-45 75 -68 100 l-40 44 28 12 c95 39 135 42 175 13z m-564 -11 c-3 -8 -6 -5
-6 6 -1 11 2 17 5 13 3 -3 4 -12 1 -19z m343 -80 c52 -53 90 -113 90 -143 0
-9 -9 -15 -25 -15 -14 0 -25 -4 -25 -10 0 -5 -15 -10 -34 -10 -19 0 -38 -4
-41 -10 -3 -5 -22 -10 -41 -10 -19 0 -34 5 -34 10 0 6 -5 10 -10 10 -13 0 -58
45 -94 92 -35 47 -32 79 9 91 17 5 38 13 47 18 10 5 28 9 40 9 13 0 30 5 38
10 23 15 25 14 80 -42z m-321 2 c0 -10 -3 -8 -9 5 -12 27 -12 43 0 25 5 -8 9
-22 9 -30z m38 -82 c17 -32 27 -55 22 -52 -10 6 -59 98 -59 110 0 11 4 5 37
-58z m691 -78 c54 -33 55 -32 -162 -90 -124 -33 -161 -35 -226 -8 l-35 15 100
30 c55 18 127 39 160 48 33 9 65 18 70 20 27 9 63 3 93 -15z m-533 -84 c39
-26 82 -50 98 -53 25 -5 39 -23 17 -23 -38 0 -220 125 -220 152 0 6 8 2 18 -9
9 -11 49 -41 87 -67z m-185 54 c0 -5 7 -10 15 -10 8 0 15 -4 15 -10 0 -13 -21
-13 -54 0 -33 12 -34 30 -1 30 14 0 25 -4 25 -10z m740 -72 c-77 -36 -126 -51
-232 -72 -93 -19 -100 -19 -68 -1 14 8 42 14 62 15 20 0 40 5 43 10 3 6 15 10
26 10 20 0 135 33 174 50 42 18 38 8 -5 -12z m100 -48 c0 -16 -7 -20 -35 -20
-40 0 -50 26 -12 33 42 8 47 7 47 -13z m-450 -20 c0 -11 -14 -11 -50 0 -22 7
-21 8 13 9 20 1 37 -3 37 -9z"/>
<path d="M2312 3404 c2 -13 16 -21 47 -26 24 -4 46 -9 48 -12 7 -7 -53 -36
-73 -36 -9 0 -51 -16 -93 -37 -88 -42 -174 -122 -212 -199 -24 -48 -24 -54
-27 -346 l-3 -298 49 0 c41 0 51 3 55 20 5 20 14 20 450 20 437 0 446 0 452
-20 5 -16 15 -20 56 -20 l50 0 -3 298 -3 297 -30 55 c-16 30 -52 78 -80 105
-51 52 -178 125 -218 125 -12 1 -38 9 -57 19 l-35 19 50 7 c47 7 64 18 65 39
0 9 -54 4 -145 -15 -33 -6 -78 -12 -100 -12 -22 0 -67 6 -100 12 -33 7 -80 15
-103 18 -39 5 -43 3 -40 -13z m327 -90 c47 -9 113 -29 147 -45 64 -31 127 -85
121 -103 -3 -8 -111 -12 -355 -14 -320 -2 -352 -1 -352 14 0 23 54 68 120 101
44 22 167 56 224 62 5 1 48 -6 95 -15z m-525 -192 c-6 -4 -14 -20 -18 -37 -4
-16 -12 -48 -18 -70 -6 -22 -13 -150 -17 -285 -4 -155 -10 -244 -16 -242 -6 1
-10 96 -10 260 0 251 1 258 24 307 27 56 51 88 60 80 3 -4 1 -9 -5 -13z m925
-47 c8 -16 19 -41 25 -54 14 -31 15 -530 1 -533 -6 -2 -12 85 -16 237 -4 132
-11 260 -17 285 -22 93 -25 100 -33 106 -5 3 -9 10 -9 15 0 16 34 -23 49 -56z
m-101 -62 c1 -57 -1 -103 -6 -103 -5 0 -24 8 -43 18 -29 15 -71 17 -309 20
-267 3 -380 -5 -380 -29 0 -5 -7 -9 -15 -9 -12 0 -15 18 -15 98 0 54 3 102 7
105 4 4 176 6 382 5 l376 -3 3 -102z m-809 -202 c2 -177 55 -219 302 -241 185
-16 401 7 469 49 62 39 80 85 81 215 1 61 5 122 9 136 5 14 8 -75 9 -208 l1
-232 -447 2 -448 3 -3 165 c-2 91 0 194 4 230 l8 65 7 -45 c4 -25 8 -87 8
-139z m736 85 c33 -14 58 -43 69 -81 8 -27 -4 -42 -37 -50 -26 -7 -27 -6 -27
31 0 66 -16 74 -155 74 -81 0 -125 -4 -133 -12 -7 -7 -12 -33 -12 -59 0 -26
-3 -54 -6 -63 -12 -31 -24 -4 -24 54 0 48 -4 61 -19 70 -11 5 -71 10 -135 10
-132 0 -146 -7 -146 -71 0 -42 -13 -49 -51 -29 -39 22 -7 100 51 124 50 21
575 23 625 2z m-365 -121 l0 -55 -66 0 c-37 0 -84 5 -105 12 -38 11 -39 13
-39 55 l0 43 105 0 105 0 0 -55z m320 12 c0 -42 -1 -44 -39 -55 -21 -7 -68
-12 -105 -12 l-66 0 0 55 0 55 105 0 105 0 0 -43z m-475 -96 c174 -33 316 -26
558 25 33 8 34 -3 4 -37 -42 -48 -152 -70 -352 -70 -208 0 -325 25 -359 75
-22 34 -20 39 12 33 15 -3 77 -15 137 -26z"/>
<path d="M850 3256 c0 -45 3 -54 20 -59 18 -5 19 -11 14 -73 -4 -38 -10 -87
-15 -109 -6 -22 -13 -156 -16 -297 l-6 -258 77 0 78 0 -6 193 c-3 105 -9 228
-15 272 -10 86 -22 250 -15 200 4 -23 13 -34 34 -42 l30 -11 0 -220 c0 -121 3
-227 6 -236 5 -14 46 -16 350 -16 l344 0 0 -70 0 -70 75 0 75 0 0 84 c0 47 -6
101 -14 124 -28 78 -36 184 -25 298 6 59 17 117 25 130 11 16 14 46 12 115
l-3 94 -512 3 -513 2 0 -54z m110 9 c0 -10 -11 -15 -35 -15 -24 0 -35 5 -35
15 0 10 11 15 35 15 24 0 35 -5 35 -15z m870 -61 l0 -75 -32 3 c-27 2 -33 8
-39 34 -10 50 -16 54 -84 54 -55 0 -66 -3 -79 -22 -9 -12 -16 -33 -16 -45 0
-16 -6 -23 -19 -23 -34 0 -51 12 -51 35 0 50 -8 55 -81 55 l-70 0 -19 -46
c-16 -37 -24 -45 -42 -42 -16 2 -24 11 -26 28 -7 46 -29 60 -97 60 -69 0 -81
-8 -87 -55 -3 -26 -7 -30 -33 -30 l-30 0 -3 73 -3 72 406 0 405 0 0 -76z
m-616 -73 c7 -43 21 -51 93 -51 60 0 72 8 79 51 6 36 9 39 40 39 31 0 34 -3
34 -29 0 -44 23 -61 85 -61 76 0 85 5 85 51 0 39 0 39 40 39 l40 0 0 -145 0
-145 -315 0 -315 0 0 99 c0 97 0 99 25 105 16 4 27 15 31 34 10 49 13 52 42
52 26 0 30 -4 36 -39z m611 -341 c7 -86 6 -94 -8 -80 -16 16 -22 90 -17 225
l3 70 7 -60 c4 -33 11 -103 15 -155z m-881 -150 l1 -155 -28 -3 -28 -3 4 163
c2 90 10 199 18 243 l14 80 9 -85 c5 -47 10 -155 10 -240z m784 184 c19 -6 22
-13 22 -55 l0 -49 -300 0 -300 0 0 43 c0 24 5 48 12 55 9 9 84 12 278 12 146
0 275 -3 288 -6z m-626 -71 c3 -59 6 -69 26 -79 38 -19 37 -24 -6 -24 l-42 0
0 85 c0 101 18 115 22 18z m688 -93 c0 -6 -103 -10 -290 -10 -187 0 -290 4
-290 10 0 6 103 10 290 10 187 0 290 -4 290 -10z m40 -110 c0 -68 -1 -70 -25
-70 -24 0 -25 3 -25 60 0 53 2 60 20 60 11 0 20 5 20 10 0 6 2 10 5 10 3 0 5
-31 5 -70z"/>
<path d="M650 1865 c0 -168 1 -175 20 -175 18 0 20 7 20 75 l0 75 38 0 c36 0
39 -3 80 -75 30 -54 48 -75 62 -75 11 0 20 2 20 5 0 2 -20 37 -44 77 l-45 73
24 14 c28 17 45 51 45 89 0 62 -53 92 -162 92 l-58 0 0 -175z m137 134 c34
-13 43 -25 43 -66 0 -42 -30 -63 -92 -63 l-48 0 0 70 0 70 34 0 c19 0 47 -5
63 -11z"/>
<path d="M1010 1865 l0 -175 95 0 c77 0 95 3 95 15 0 11 -18 15 -77 17 l-78 3
0 65 0 65 73 3 c55 2 72 6 72 17 0 12 -16 15 -75 15 l-76 0 3 58 3 57 78 3
c59 2 77 6 77 17 0 12 -18 15 -95 15 l-95 0 0 -175z"/>
<path d="M1330 1865 l0 -175 95 0 c77 0 95 3 95 15 0 11 -17 15 -72 17 l-73 3
-3 158 c-2 149 -4 157 -22 157 -19 0 -20 -7 -20 -175z"/>
<path d="M1721 2018 c-5 -13 -36 -92 -69 -175 -51 -131 -57 -153 -42 -153 12
0 25 17 40 55 l22 55 73 0 72 0 20 -52 c14 -38 26 -54 41 -56 19 -3 15 10 -40
150 -33 84 -64 163 -69 176 -5 12 -15 22 -24 22 -9 0 -19 -10 -24 -22z m53
-102 c14 -37 26 -70 26 -72 0 -2 -25 -4 -56 -4 -41 0 -55 3 -51 13 2 6 15 40
27 75 13 34 24 61 26 60 1 -2 14 -34 28 -72z"/>
<path d="M1970 2034 c0 -3 17 -31 38 -62 69 -102 68 -94 18 -171 -67 -104 -70
-111 -49 -111 12 0 36 28 67 77 54 87 44 88 109 -16 26 -43 43 -61 58 -61 13
0 18 4 13 13 -5 6 -30 46 -56 87 -26 41 -48 80 -48 85 0 6 15 33 33 60 75 111
72 105 50 105 -13 0 -34 -23 -65 -71 l-45 -71 -44 71 c-27 45 -50 71 -61 71
-10 0 -18 -2 -18 -6z"/>
<path d="M2584 2020 c-56 -28 -84 -80 -84 -156 0 -116 56 -174 169 -174 113 0
111 -1 111 96 l0 84 -55 0 c-42 0 -55 -3 -55 -15 0 -11 11 -15 40 -15 l40 0 0
-54 c0 -60 -6 -66 -71 -66 -93 0 -139 47 -139 142 0 65 15 95 60 126 29 19 44
23 85 19 28 -2 58 -8 68 -12 13 -5 17 -2 17 13 0 37 -119 45 -186 12z"/>
<path d="M2995 2031 c-54 -24 -85 -85 -85 -167 0 -64 17 -109 55 -144 23 -22
36 -25 100 -25 64 0 77 3 100 25 42 39 55 73 55 145 0 71 -13 106 -54 145 -21
19 -39 25 -89 27 -34 2 -71 -1 -82 -6z m146 -49 c36 -32 49 -87 38 -161 -11
-80 -85 -121 -163 -91 -87 33 -89 235 -3 270 46 18 95 11 128 -18z"/>
<path d="M3360 1865 c0 -168 1 -175 20 -175 18 0 20 7 20 76 l0 75 37 -3 c34
-3 40 -8 73 -66 44 -75 53 -85 74 -80 14 2 8 17 -29 77 l-46 75 30 23 c38 30
49 79 27 121 -19 37 -63 52 -148 52 l-58 0 0 -175z m161 119 c25 -22 24 -69
-1 -94 -15 -15 -33 -20 -70 -20 l-50 0 0 71 0 72 51 -6 c29 -4 60 -14 70 -23z"/>
<path d="M3785 2031 c-54 -24 -85 -85 -85 -167 0 -64 17 -109 55 -144 23 -22
36 -25 100 -25 64 0 77 3 100 25 42 39 55 73 55 145 0 71 -13 106 -54 145 -21
19 -39 25 -89 27 -34 2 -71 -1 -82 -6z m146 -49 c36 -32 49 -87 38 -161 -11
-80 -85 -121 -163 -91 -87 33 -89 235 -3 270 46 18 95 11 128 -18z"/>
<path d="M4150 1866 l0 -176 58 0 c144 0 212 56 212 175 0 118 -52 166 -187
173 l-83 5 0 -177z m142 134 c20 -6 48 -24 62 -41 49 -57 29 -186 -34 -219
-11 -6 -47 -12 -78 -13 l-57 -2 -3 129 c-1 72 0 136 2 143 6 16 57 17 108 3z"/>
<path d="M2833 1495 c0 -54 1 -61 6 -30 5 31 10 40 26 40 16 0 21 -9 26 -40
l7 -40 -2 45 c-1 41 -3 45 -26 45 -18 0 -27 7 -31 25 -4 14 -7 -6 -6 -45z"/>
<path d="M1871 1488 c1 -35 4 -51 6 -36 3 18 11 28 25 30 51 7 44 68 -8 68
-23 0 -24 -3 -23 -62z m54 27 c0 -13 -8 -21 -22 -23 -19 -3 -23 1 -23 23 0 22
4 26 23 23 14 -2 22 -10 22 -23z"/>
<path d="M2727 1543 c-16 -15 -5 -43 21 -55 36 -17 35 -41 -3 -49 -28 -6 -28
-7 -5 -8 53 -2 66 40 20 64 -37 19 -39 42 -2 48 l27 4 -26 2 c-14 0 -29 -2
-32 -6z"/>
<path d="M1993 1513 c-8 -3 -12 -21 -11 -46 1 -41 1 -41 5 -7 2 19 11 41 20
48 17 12 9 15 -14 5z"/>
<path d="M2062 1508 c-31 -31 -3 -83 40 -75 21 4 21 4 -3 6 -15 0 -29 8 -33
16 -4 11 2 15 25 15 26 0 30 3 27 23 -3 25 -36 35 -56 15z m48 -13 c0 -16 -35
-21 -44 -6 -8 12 4 21 26 21 10 0 18 -7 18 -15z"/>
<path d="M2161 1471 l2 -46 6 40 c5 31 10 40 26 40 16 0 21 -8 24 -40 l5 -40
5 40 c5 31 10 40 26 40 16 0 21 -9 26 -40 l6 -40 1 35 c2 51 -6 58 -70 57
l-58 -1 1 -45z"/>
<path d="M2333 1475 c0 -27 2 -38 4 -22 2 15 2 37 0 50 -2 12 -4 0 -4 -28z"/>
<path d="M2381 1493 c-2 -45 8 -63 33 -62 20 0 20 1 1 8 -13 5 -22 21 -26 47
-6 36 -6 37 -8 7z"/>
<path d="M2447 1483 c-4 -21 -2 -42 3 -47 7 -7 10 7 10 37 0 57 -5 60 -13 10z"/>
<path d="M2501 1471 l2 -46 6 40 c5 31 10 40 26 40 16 0 21 -9 26 -40 l6 -40
2 38 c1 40 26 61 42 36 7 -11 9 -11 9 3 0 13 -10 16 -60 15 l-60 -1 1 -45z"/>
<path d="M2947 1513 c-11 -11 -8 -58 5 -71 34 -34 82 13 59 57 -11 20 -50 29
-64 14z m56 -23 c7 -26 -16 -55 -37 -47 -16 6 -22 47 -9 60 13 14 41 6 46 -13z"/>
<path d="M3051 1450 c1 -56 2 -60 9 -30 5 19 6 38 4 42 -12 19 8 49 29 46 33
-5 36 -55 5 -67 -14 -6 -17 -10 -7 -10 21 -1 39 19 39 45 0 28 -21 45 -54 42
-25 -2 -26 -4 -25 -68z"/>
</g>
</svg>
