<svg fill="none" height="30" viewBox="0 0 27 30" width="27" xmlns="http://www.w3.org/2000/svg"><path d="m26.4151 29.014-2.2832-21.71336c-.0479-.45456-.4316-.79971-.8893-.79971h-4.2913v-.9771c0-3.04573-2.4814-5.52383-5.5313-5.52383-3.05 0-5.53145 2.4781-5.53145 5.52383v.9771h-4.29134c-.45769 0-.84135.34515-.88925.79971l-2.283184 21.71336c-.026357.2515.055464.5026.224835.6907.1696.188.411169.2953.664419.2953h24.21157c.2535 0 .495-.1073.6644-.2953.1698-.1881.2514-.4392.2251-.6907zm-16.73841-23.49017c0-2.06108 1.67931-3.73809 3.74331-3.73809 2.0639 0 3.7432 1.67701 3.7432 3.73809v.9771h-7.48651zm-7.36981 22.69047 2.09547-19.92763h3.4862v1.96773c0 .493.40039.8928.89407.8928.49367 0 .89407-.3998.89407-.8928v-1.96773h7.48651v1.96773c0 .493.4003.8928.894.8928s.8941-.3998.8941-.8928v-1.96773h3.4862l2.0955 19.92763z" fill="#333"/></svg>