<svg fill="none" height="100" viewBox="0 0 100 100" width="100" xmlns="http://www.w3.org/2000/svg"><g fill="#639954"><path d="m97.1406 13.6709c-1.4711-1.4736-3.858-1.4761-5.3291-.0062l-45.2135 45.0941-16.3129-17.7174c-1.4096-1.53-3.7928-1.6293-5.3254-.2199-1.5314 1.4096-1.6295 3.794-.2199 5.3254l18.9699 20.6018c.6947.755 1.667 1.1935 2.6922 1.2148.0275.0012.0541.0012.0805.0012.9963 0 1.9547-.3957 2.6607-1.0992l47.99-47.8643c1.4748-1.4697 1.4774-3.8566.0075-5.3303z"/><path d="m96.2311 46.2311c-2.0817 0-3.7688 1.6871-3.7688 3.7689 0 23.4146-19.0477 42.4623-42.4623 42.4623-23.4133 0-42.4623-19.0477-42.4623-42.4623 0-23.4133 19.049-42.4623 42.4623-42.4623 2.0816 0 3.7689-1.68711 3.7689-3.76875 0-2.08184-1.6873-3.76895-3.7689-3.76895-27.5703 0-50 22.4297-50 50 0 27.5691 22.4297 50 50 50 27.5691 0 50-22.4309 50-50 0-2.0816-1.6871-3.7689-3.7689-3.7689z"/></g></svg>