<svg fill="none" height="14" viewBox="0 0 15 14" width="15" xmlns="http://www.w3.org/2000/svg"><path d="m13.7008 1.32704c-.7241-.777788-1.7388-1.220337-2.8019-1.221978-1.06399.00123-2.07974.443546-2.805 1.221478l-.24717.261-.24717-.261c-1.4391-1.547751-3.86135-1.636636-5.41019-.19857-.06863.06375-.13491.12996-.19871.19857-1.526609 1.64546-1.526609 4.18844 0 5.83389l5.49283 5.78837c.19003.2005.50672.2091.70734.0192.00657-.0062.01296-.0126.01917-.0192l5.4908-5.78837c1.5265-1.64528 1.5265-4.18811 0-5.83339zm-.724 5.1449h-.0005l-5.12957 5.40636-5.13006-5.40636c-1.16624-1.25728-1.16624-3.20012 0-4.4574 1.05909-1.147071 2.84824-1.218993 3.99613-.16066.05573.05138.10935.10496.16077.16066l.60992.64299c.201.19957.52551.19957.72651 0l.60992-.6425c1.05909-1.147063 2.84828-1.218985 3.99608-.16066.0558.05139.1094.10497.1608.16066 1.1764 1.25928 1.185 3.20566 0 4.45691z" fill="#c60e17"/></svg>