<svg fill="none" height="26" viewBox="0 0 27 26" width="27" xmlns="http://www.w3.org/2000/svg"><path d="m24.2937 3.30593c-1.3448-1.49575-3.2293-2.346808-5.2036-2.349963-1.9759.002366-3.8623.852973-5.2092 2.349003l-.4591.50192-.459-.50192c-2.6726-2.976451-7.17109-3.147384-10.04749-.38187-.12746.1226-.25056.24992-.36904.38187-2.835131 3.16434-2.835131 8.05463 0 11.21903l10.20093 11.1315c.353.3855.9411.402 1.3137.0369.0122-.012.024-.0243.0356-.0369l10.1972-11.1315c2.835-3.164 2.835-8.05407 0-11.21807zm-1.3446 9.89407h-.0009l-9.5264 10.3969-9.52722-10.3969c-2.16588-2.4179-2.16588-6.15412 0-8.57197 1.96688-2.2059 5.28958-2.34421 7.42142-.30896.1035.09882.203.20186.2985.30896l1.1327 1.23653c.3733.38378.976.38378 1.3493 0l1.1327-1.23557c1.9669-2.2059 5.2896-2.34421 7.4214-.30896.1035.09882.203.20186.2985.30896 2.1848 2.42168 2.2008 6.16471 0 8.57101z" fill="#333"/></svg>