<svg fill="none" height="41" viewBox="0 0 41 41" width="41" xmlns="http://www.w3.org/2000/svg" xmlns:xlink="http://www.w3.org/1999/xlink"><clipPath id="a"><path d="m11.3013 11.061h18v17.9994h-18z"/></clipPath><path d="m.80127.559082h39v39h-39z" stroke="#333"/><g clip-path="url(#a)"><path d="m29.2927 12.9358c-.1103-1.0718-.9986-1.8742-2.078-1.8748-4.6077 0-9.2148 0-13.8225.0012-.126 0-.2543.0093-.3762.0331-1.0208.1951-1.714 1.0393-1.714 2.078v6.8906c0 2.2923 0 4.5845.0012 6.8768 0 .1167.0087.2339.0232.3506.1335.9969 1.019 1.7697 2.0263 1.7703 4.6327 0 9.2659 0 13.8986-.0006.0795 0 .1579-.0046.2375-.0133 1.0178-.1196 1.8091-1.0085 1.8091-2.0333.0018-4.6338.0018-9.2671.0006-13.9003.0012-.0604.0023-.1191-.0058-.1783zm-8.9919 3.6654c1.9126-.0006 3.4605 1.545 3.4628 3.4593.0023 1.9131-1.5433 3.4615-3.457 3.4627-1.9171.0006-3.4673-1.5491-3.465-3.4651.0023-1.9078 1.5514-3.4569 3.4592-3.4569zm6.9273 2.1709v7.4591c0 .4679-.2845.7553-.7531.7553-3.8453 0-7.6907 0-11.5367 0-.2769 0-.5521.0006-.8296 0-.4338-.0006-.7281-.2955-.7281-.7286-.0006-2.4978 0-4.9956 0-7.4939 0-.025 0-.0506 0-.0802h1.5618c-.3495 1.4103-.1893 2.7597.5011 4.0358.5045.9313 1.228 1.6554 2.1505 2.1762 1.822 1.0282 4.0887.9313 5.8235-.2544.9627-.6584 1.6548-1.5339 2.0676-2.6249.4105-1.0886.4639-2.1999.1771-3.335h1.5647c.0012.0308.0012.0604.0012.0906zm0-2.8798c-.0012.4093-.3025.7077-.7136.7083-.0052 0-.011 0-.0139 0-.3333 0-.6689 0-1.0045 0-.3414 0-.6839.0006-1.0265-.0006-.3942 0-.7008-.2943-.7031-.6886-.0047-.6938-.0047-1.3876 0-2.0803.0023-.3989.3077-.6909.7089-.6915.6828-.0006 1.3639-.0006 2.0455 0 .4041.0006.7066.3008.7077.7072.0006.6828.0006 1.3638-.0005 2.0455z" fill="#333"/></g></svg>