<svg fill="none" height="33" viewBox="0 0 32 33" width="32" xmlns="http://www.w3.org/2000/svg" xmlns:xlink="http://www.w3.org/1999/xlink"><clipPath id="a"><path d="m0 .440918h32v32h-32z"/></clipPath><g clip-path="url(#a)"><path d="m16.3149 32.4413c-.1059 0-.2119 0-.3186-.0005-2.5083.0061-4.8259-.0576-7.0798-.1948-2.0664-.1258-3.95263-.8399-5.45507-2.065-1.44971-1.1821-2.4397-2.7805-2.942387-4.7502-.4375-1.7149-.4606934-3.3982-.4829102-5.0264-.0161133-1.1682-.03271483-2.5525-.0361328-3.9602.00341797-1.4136.0200195-2.7979.0361328-3.9661.0222168-1.6279.0454102-3.31125.4829102-5.02634.502687-1.96973 1.492677-3.56812 2.942387-4.75025 1.50244-1.22509 3.38867-1.939206 5.45532-2.064938 2.25395-.136963 4.57205-.200928 7.08565-.194824 2.5091-.005372 4.826.057861 7.0799.194824 2.0664.125732 3.9526.839848 5.4551 2.064938 1.4499 1.18213 2.4397 2.78052 2.9423 4.75025.4375 1.71484.4607 3.39844.4829 5.02634.0162 1.1682.033 2.5525.0362 3.9602v.0059c-.0032 1.4077-.02 2.792-.0362 3.9602-.0222 1.6279-.0451 3.3113-.4829 5.0264-.5026 1.9697-1.4924 3.5681-2.9423 4.7502-1.5025 1.2251-3.3887 1.9392-5.4551 2.065-2.1585.1313-4.3758.1953-6.7674.1953zm-.3186-2.5005c2.4676.0058 4.7332-.0564 6.9341-.1902 1.5625-.095 2.9173-.6021 4.0271-1.5071 1.0259-.8367 1.7324-1.991 2.0999-3.4309.3642-1.4275.3852-2.9602.4055-4.4424.0159-1.1604.0325-2.5349.0359-3.9289-.0034-1.3943-.02-2.7686-.0359-3.929-.0203-1.4822-.0413-3.01489-.4055-4.44262-.3675-1.43994-1.074-2.59424-2.0999-3.43091-1.1098-.90479-2.4646-1.41187-4.0271-1.50684-2.2009-.13403-4.4665-.1958-6.9282-.19043-2.467-.00586-4.7329.0564-6.93384.19043-1.5625.09497-2.91724.60205-4.0271 1.50684-1.02588.83667-1.73242 1.99097-2.09985 3.43091-.36426 1.42773-.38526 2.96022-.40552 4.44262-.01587 1.1614-.03247 2.5366-.03589 3.9319.00342 1.3892.02002 2.7646.03589 3.926.02026 1.4822.04126 3.0149.40552 4.4424.36743 1.4399 1.07397 2.5942 2.09985 3.4309 1.10986.9048 2.4646 1.4119 4.0271 1.5068 2.20094.1341 4.46724.1966 6.92794.1905zm-.0595-5.687c-4.3076 0-7.81253-3.5047-7.81253-7.8125 0-4.3079 3.50493-7.81254 7.81253-7.81254 4.3078 0 7.8125 3.50464 7.8125 7.81254 0 4.3078-3.5047 7.8125-7.8125 7.8125zm0-13.125c-2.9292 0-5.3125 2.3833-5.3125 5.3125s2.3833 5.3125 5.3125 5.3125c2.9294 0 5.3125-2.3833 5.3125-5.3125s-2.3831-5.3125-5.3125-5.3125zm8.6875-5.00004c-1.0354 0-1.875.83936-1.875 1.875 0 1.03565.8396 1.875 1.875 1.875 1.0356 0 1.875-.83935 1.875-1.875 0-1.03564-.8394-1.875-1.875-1.875z" fill="#222"/></g></svg>