<?xml version="1.0" standalone="no"?>
<!DOCTYPE svg PUBLIC "-//W3C//DTD SVG 20010904//EN"
 "http://www.w3.org/TR/2001/REC-SVG-20010904/DTD/svg10.dtd">
<svg version="1.0" xmlns="http://www.w3.org/2000/svg"
 width="834.000000pt" height="384.000000pt" viewBox="0 0 834.000000 384.000000"
 preserveAspectRatio="xMidYMid meet">

<g transform="translate(0.000000,384.000000) scale(0.100000,-0.100000)"
fill="#000000" stroke="none">
<path d="M4126 3721 c-230 -34 -250 -39 -265 -61 -15 -21 -111 -481 -372
-1781 l-92 -456 -81 -88 c-252 -274 -446 -375 -696 -363 -165 8 -245 72 -270
216 -6 37 -10 128 -8 202 l3 134 75 12 c291 45 553 193 717 406 59 78 126 206
155 298 20 65 23 96 23 230 0 153 0 156 -31 220 -77 163 -227 230 -484 217
-325 -16 -564 -165 -777 -485 -169 -253 -282 -610 -313 -988 -24 -300 35 -531
172 -668 105 -105 244 -160 428 -172 250 -16 512 64 722 221 91 68 227 200
286 278 l37 48 12 -95 c15 -122 28 -168 66 -239 33 -62 107 -137 169 -168 95
-48 262 -61 383 -28 199 53 381 172 492 323 35 47 44 55 49 40 25 -79 83 -173
139 -228 171 -169 426 -202 662 -86 100 49 235 172 309 281 l49 71 11 -46 c23
-89 72 -176 133 -236 116 -113 258 -155 451 -132 311 37 587 213 855 545 l38
48 34 -118 c94 -326 214 -463 423 -480 196 -16 395 100 463 270 24 58 50 176
42 185 -2 2 -20 -1 -42 -7 -60 -17 -153 -13 -200 8 -55 25 -86 75 -117 186
-25 87 -76 359 -76 400 0 11 30 54 66 95 272 309 429 548 500 760 26 78 28 98
28 230 0 128 -2 152 -23 203 -52 132 -139 197 -260 197 -103 -1 -175 -39 -213
-114 -29 -57 -23 -192 12 -256 35 -63 93 -92 178 -88 l62 3 0 -50 c0 -27 -5
-70 -10 -95 -16 -69 -122 -274 -194 -375 -76 -104 -183 -235 -194 -235 -4 0
-43 208 -86 463 -52 308 -83 468 -94 480 -14 15 -40 17 -283 17 -147 0 -274
-3 -283 -6 -9 -3 -16 -17 -16 -30 0 -24 226 -1334 236 -1366 8 -27 -140 -179
-270 -276 -197 -147 -431 -204 -529 -129 -38 29 -67 97 -67 161 -1 17 70 387
157 821 86 435 154 798 150 808 -6 16 -31 17 -290 17 -265 0 -285 -1 -301 -19
-9 -10 -24 -59 -33 -107 l-17 -89 -8 44 c-13 73 -85 147 -167 172 -66 20 -250
23 -338 5 -175 -35 -293 -103 -438 -250 -206 -208 -343 -468 -429 -816 -40
-163 -66 -342 -66 -459 0 -75 -2 -81 -41 -140 -77 -115 -163 -171 -274 -179
-133 -8 -185 38 -185 164 0 72 6 103 365 1884 69 344 124 636 123 650 -3 22
-8 25 -48 27 -25 1 -157 -15 -294 -36z m-1173 -1077 c33 -32 42 -76 40 -179
-5 -288 -209 -591 -463 -686 -71 -27 -150 -40 -150 -25 0 32 54 241 90 348 51
155 155 364 220 445 91 113 205 155 263 97z m2837 -49 c39 -20 80 -75 86 -117
7 -43 -198 -1077 -231 -1164 -79 -209 -259 -329 -403 -268 -91 37 -119 101
-129 284 -12 257 72 646 197 907 121 255 246 373 392 373 33 0 72 -7 88 -15z"/>
<path d="M500 2852 c-23 -11 -42 -32 -57 -62 -14 -30 -90 -385 -227 -1070
-114 -564 -206 -1036 -206 -1051 0 -48 6 -49 295 -49 252 0 273 1 292 19 15
15 27 59 53 192 18 96 90 464 161 819 97 485 136 658 155 698 43 88 136 140
232 129 55 -6 63 -14 73 -78 12 -76 54 -137 114 -168 41 -21 62 -26 127 -25
65 0 86 5 135 30 107 54 167 165 166 304 -1 132 -65 249 -168 303 -58 32 -205
30 -288 -2 -70 -27 -177 -98 -272 -179 -38 -33 -71 -59 -73 -57 -2 1 7 55 20
120 22 115 22 117 3 131 -15 11 -69 14 -259 14 -209 0 -246 -2 -276 -18z"/>
</g>
</svg>
