<svg fill="none" height="13" viewBox="0 0 15 13" width="15" xmlns="http://www.w3.org/2000/svg" xmlns:xlink="http://www.w3.org/1999/xlink"><clipPath id="a"><path d="m.755188.211914h13.6364v12.4492h-13.6364z"/></clipPath><g clip-path="url(#a)" fill="#639954"><path d="m13.1933 1.69513h-11.23934c-.18449 0-.35721.04141-.51347.10966l6.1065 5.57489 1.36867-1.20084s.00011-.00012.00014-.00017c.00002-.00005.00013-.0001.00013-.0001l4.79097-4.37368c-.1562-.0683-.3291-.10976-.5136-.10976z"/><path d="m14.2717 2.32025-4.50864 4.11588 4.50844 4.11597c.0748-.1427.1201-.3004.1201-.4688v-7.29445c0-.16833-.0452-.32599-.1199-.4686z"/><path d="m.875305 2.3208c-.07476.14266-.120117.30034-.120117.46877v7.29443c0 .1684.045304.3261.120011.4687l4.508601-4.1159z"/><path d="m9.19735 6.95244-1.36885 1.20099c-.07804.07124-.18026.10686-.28245.10686-.1022 0-.20444-.03562-.28245-.10686l-1.31559-1.20104-4.50868 4.11591c.15629.0683.32911.1098.51365.1098h11.23932c.1845 0 .3572-.0415.5135-.1097z"/></g></svg>