<svg fill="none" height="41" viewBox="0 0 50 41" width="50" xmlns="http://www.w3.org/2000/svg"><path d="m12.4426 35.122v-1.9932c.0116-.1676-.0126-.3358-.071-.4933-.0584-.1576-.1496-.3008-.2676-.4203-.1181-.1194-.2601-.2123-.4168-.2724-.1567-.0602-.3243-.0862-.4918-.0764-.2193-.0143-.4384.0305-.6344.1298-.1961.0993-.3619.2496-.4802.435-.10783-.1799-.26212-.3273-.4466-.4267s-.39233-.1471-.60162-.1381c-.18243-.0092-.36411.0295-.52703.1122-.16292.0828-.30141.2067-.40177.3596v-.392h-.68996v3.1758h.6966v-1.7474c-.01482-.1086-.0055-.2191.0273-.3237s.08826-.2006.16241-.2812c.07416-.0806.16519-.1438.26658-.1851.10138-.0413.21063-.0597.31992-.0538.45777 0 .68997.299.68997.8372v1.7673h.6966v-1.7607c-.0142-.1085-.0045-.2188.0286-.3231.033-.1043.0885-.2001.1625-.2805.074-.0805.1648-.1437.2659-.1852s.2101-.0603.3192-.055c.471 0 .6966.299.6966.8372v1.7673zm10.3064-3.1758h-1.1345v-.9634h-.6966v.9634h-.6303v.6311h.6436v1.4617c0 .7375.2853 1.176 1.1013 1.176.3048.001.6038-.0842.8624-.2458l-.199-.5913c-.185.1105-.395.1722-.6104.1793-.3317 0-.4577-.2126-.4577-.5315v-1.4484h1.1278zm5.8846-.0798c-.1682-.0049-.3347.0357-.4818.1175-.1471.0819-.2695.202-.3541.3476v-.3853h-.6834v3.1758h.69v-1.7806c0-.5249.2256-.8172.6634-.8172.1476-.002.2941.0251.4313.0797l.2122-.6644c-.1575-.0564-.3235-.0856-.4909-.0863zm-8.8966.3322c-.3905-.2325-.8396-.3478-1.2937-.3322-.8027 0-1.3268.3854-1.3268 1.0166 0 .5182.3848.8371 1.0946.9368l.3317.0465c.3782.0531.5573.1528.5573.3322 0 .2458-.2521.3853-.7231.3853-.3789.011-.7505-.106-1.0549-.3322l-.3317.5382c.4019.281.8833.4254 1.3733.4119.9155 0 1.4463-.4318 1.4463-1.0364s-.418-.8505-1.1079-.9501l-.3318-.0465c-.2985-.0399-.5373-.0997-.5373-.3123s.2255-.3721.6037-.3721c.3495.0041.6921.0979.9951.2724zm18.4798-.3322c-.1682-.0049-.3347.0357-.4818.1175-.1471.0819-.2694.202-.3541.3476v-.3853h-.6833v3.1758h.6899v-1.7806c0-.5249.2256-.8172.6635-.8172.1475-.002.2941.0251.4312.0797l.2123-.6644c-.1576-.0564-.3236-.0856-.491-.0863zm-8.8899 1.661c-.0082.2232.0302.4456.1127.6531.0826.2075.2075.3954.3667.5517.1593.1564.3493.2777.5581.3563.2087.0785.4316.1126.6542.0999.4143.0211.8214-.114 1.1411-.3787l-.3317-.5581c-.2385.1822-.5294.2824-.8293.2857-.255-.0206-.493-.1367-.6664-.3251-.1735-.1883-.2698-.4352-.2698-.6914 0-.2563.0963-.5031.2698-.6915.1734-.1883.4114-.3044.6664-.325.2999.0033.5908.1035.8293.2857l.3317-.5581c-.3197-.2647-.7268-.3999-1.1411-.3787-.2226-.0127-.4455.0214-.6542.0999-.2088.0786-.3988.1999-.5581.3563-.1592.1563-.2841.3442-.3667.5517-.0825.2074-.1209.4299-.1127.653zm6.4618 0v-1.5812h-.69v.3853c-.1172-.151-.2685-.2719-.4416-.3527-.173-.0809-.3627-.1194-.5536-.1124-.4398 0-.8617.175-1.1727.4865-.3111.3115-.4858.734-.4858 1.1745 0 .4406.1747.863.4858 1.1745.311.3115.7329.4865 1.1727.4865.1909.0071.3806-.0314.5536-.1123.1731-.0809.3244-.2018.4416-.3528v.3854h.69zm-2.5675 0c.011-.1869.0763-.3665.188-.5167.1117-.1503.2647-.2645.4404-.3287s.3662-.0755.5483-.0326c.182.0429.3475.1382.4761.2741s.2148.3066.2478.4909.0115.3743-.062.5465c-.0734.1722-.1955.3192-.3513.4228-.1557.1036-.3384.1593-.5253.1603-.1314.0016-.2616-.0239-.3826-.0751s-.2301-.127-.3205-.2224c-.0903-.0955-.16-.2087-.2045-.3324-.0446-.1238-.0631-.2554-.0544-.3867zm-8.326-1.661c-.4399.0062-.8593.1871-1.166.503-.3067.3158-.4755.7408-.4694 1.1813.0062.4405.1868.8605.5022 1.1677.3154.3071.7397.4762 1.1796.47.4773.0246.9466-.1293 1.3169-.4318l-.3317-.5116c-.2619.2104-.5864.3273-.9222.3322-.228.0196-.4548-.0506-.6319-.1958-.1772-.1451-.2908-.3538-.3168-.5816h2.3552c0-.0863 0-.1727 0-.2657 0-.9966-.617-1.661-1.506-1.661zm0 .6179c.1032-.0022.2059.016.3021.0536.0962.0375.1841.0937.2587.1652.0745.0716.1343.1572.1758.2519s.064.1966.0661.3h-1.6586c.0121-.2132.107-.4133.2644-.5573.1575-.1441.365-.2207.5782-.2134zm17.2856 1.0498v-2.8636h-.6634v1.661c-.1172-.151-.2686-.2719-.4416-.3527-.173-.0809-.3628-.1194-.5536-.1124-.4399 0-.8617.175-1.1728.4865-.311.3115-.4857.734-.4857 1.1745 0 .4406.1747.863.4857 1.1745.3111.3115.7329.4865 1.1728.4865.1908.0071.3806-.0314.5536-.1123s.3244-.2018.4416-.3528v.3854h.6634zm1.151 1.1261c.0432-.0005.086.0074.1261.0233.0381.0156.073.0381.1028.0664.0292.0287.0528.0625.0697.0997.0168.0388.0255.0806.0255.1229s-.0087.0841-.0255.1229c-.0169.0372-.0405.071-.0697.0997-.0298.0283-.0647.0508-.1028.0664-.0397.0176-.0827.0266-.1261.0266-.0628-.0005-.1243-.0189-.1771-.053-.0529-.0341-.095-.0825-.1214-.1397-.0166-.0388-.0252-.0806-.0252-.1229s.0086-.0841.0252-.1229c.0169-.0372.0405-.071.0697-.0997.0298-.0283.0647-.0508.1028-.0664.0432-.0172.0895-.0251.136-.0233zm0 .5614c.0332.0002.0659-.0065.0962-.0199.0286-.0127.0545-.0308.0763-.0531.0415-.0454.0645-.1046.0645-.1661s-.023-.1208-.0645-.1661c-.0218-.0225-.0477-.0405-.0763-.0532-.0303-.0132-.0631-.02-.0962-.0199-.033.0002-.0657.0069-.0962.0199-.0298.0123-.0568.0303-.0796.0532-.0415.0453-.0645.1046-.0645.1661s.023.1207.0645.1661c.0228.0227.0499.0408.0796.0531.0335.0145.0698.0213.1062.0199zm.0199-.3953c.031-.0015.0615.0079.0863.0266.0101.0084.0182.0191.0233.0313.0052.0121.0075.0253.0065.0385.0005.011-.0013.022-.0053.0323s-.0101.0196-.0179.0275c-.0192.0175-.0437.028-.0696.0299l.0962.1096h-.0763l-.0896-.1096h-.0298v.1096h-.0631v-.2923zm-.0729.0565v.0797h.0729c.013.0039.0269.0039.0398 0 .0024-.0046.0036-.0097.0036-.0149s-.0012-.0103-.0036-.015c.0024-.0046.0036-.0097.0036-.0149s-.0012-.0103-.0036-.015c-.0129-.0038-.0268-.0038-.0398 0zm-3.6489-1.3487c.011-.187.0764-.3666.188-.5168.1117-.1502.2648-.2644.4404-.3286.1757-.0642.3663-.0756.5483-.0326.182.0429.3475.1381.4761.2741.1286.1359.2148.3065.2478.4908.033.1844.0115.3743-.0619.5465-.0735.1723-.1956.3192-.3513.4228-.1558.1036-.3384.1593-.5254.1603-.1314.0017-.2616-.0239-.3826-.0751s-.2301-.1269-.3205-.2224c-.0903-.0955-.16-.2086-.2045-.3324-.0446-.1237-.0631-.2554-.0544-.3866zm-23.2963 0v-1.5879h-.6899v.3853c-.1172-.151-.2686-.2719-.4416-.3527-.173-.0809-.3628-.1194-.5536-.1124-.4399 0-.8617.175-1.1728.4865-.311.3115-.4858.734-.4858 1.1745 0 .4406.1748.863.4858 1.1745.3111.3115.7329.4865 1.1728.4865.1908.0071.3806-.0314.5536-.1123s.3244-.2018.4416-.3528v.3854h.6899zm-2.5675 0c.011-.187.0764-.3666.1881-.5168.1116-.1502.2647-.2644.4404-.3286.1756-.0642.3662-.0756.5482-.0326.182.0429.3475.1381.4762.2741.1286.1359.2147.3065.2477.4908.033.1844.0115.3743-.0619.5465-.0734.1723-.1955.3192-.3513.4228s-.3384.1593-.5254.1603c-.1319.0026-.2629-.0223-.3847-.0731-.1217-.0508-.2316-.1263-.3227-.2219s-.1613-.2091-.2063-.3333-.0636-.2564-.0549-.3882z" fill="#231f20"/><path d="m29.9572 7.74548h-10.449v18.80572h10.449z" fill="#ff5f00"/><path d="m20.1715 17.1504c-.0019-1.8114.4077-3.5995 1.198-5.2289.7902-1.6293 1.9403-3.05727 3.3631-4.17565-1.7617-1.38653-3.8774-2.24872-6.1052-2.48805-2.2279-.23933-4.478.15387-6.4933 1.13465-2.0152.98078-3.71432 2.50957-4.90303 4.41165-1.18871 1.9021-1.81908 4.1007-1.81908 6.3446s.63037 4.4426 1.81908 6.3446c1.18871 1.9021 2.88783 3.4309 4.90303 4.4117 2.0153.9808 4.2654 1.374 6.4933 1.1346 2.2278-.2393 4.3435-1.1015 6.1052-2.488-1.4224-1.118-2.5722-2.5454-3.3624-4.1742s-1.2001-3.4162-1.1987-5.227z" fill="#eb001b"/><g fill="#f79e1b"><path d="m44.055 17.1501c0 2.244-.6306 4.4428-1.8195 6.3449-1.1889 1.9022-2.8882 3.431-4.9037 4.4116-2.0156.9806-4.2659 1.3736-6.4939 1.1339s-4.3437-1.1023-6.1052-2.4892c1.4218-1.1191 2.5713-2.5469 3.3617-4.1757.7904-1.6289 1.2011-3.4162 1.2011-5.2272s-.4107-3.5984-1.2011-5.2272-1.9399-3.05665-3.3617-4.17568c1.7615-1.38696 3.8772-2.24957 6.1052-2.48924 2.228-.23968 4.4783.15327 6.4939 1.13391 2.0155.98064 3.7148 2.50941 4.9037 4.41151 1.1889 1.9022 1.8195 4.101 1.8195 6.345z"/><path d="m42.914 24.5581v-.3854h.1559v-.0797h-.3947v.0797h.1691v.3854zm.7663 0v-.4651h-.1195l-.1393.3322-.1393-.3322h-.1061v.4651h.0862v-.3488l.1294.3023h.0895l.1294-.3023v.3521z"/></g></svg>