<svg fill="none" height="25" viewBox="0 0 25 25" width="25" xmlns="http://www.w3.org/2000/svg" xmlns:xlink="http://www.w3.org/1999/xlink"><clipPath id="a"><path d="m0 0h25v25h-25z"/></clipPath><g clip-path="url(#a)" fill="#333"><path d="m19.758 15.4866c-.5118-.5329-1.1291-.8178-1.7834-.8178-.649 0-1.2716.2796-1.8046.8125l-1.6673 1.6621c-.1372-.0739-.2744-.1425-.4063-.2111-.1899-.0949-.3693-.1846-.5224-.2796-1.5618-.992-2.9811-2.2847-4.34245-3.9573-.65956-.8337-1.10277-1.5355-1.42464-2.2478.43267-.3957.83368-.80727 1.22413-1.203.14774-.14774.29548-.30076.44322-.4485 1.10804-1.10805 1.10804-2.54324 0-3.65128l-1.44046-1.44047c-.16357-.16357-.33241-.33241-.49071-.50126-.31658-.32713-.649-.66483-.99196-.98141-.51182-.50654-1.12388-.77564-1.76761-.77564-.64372 0-1.26634.2691-1.79398.77564-.00527.00528-.00527.00528-.01055.01055l-1.79398 1.80981c-.675386.67539-1.060565 1.49851-1.1449878 2.45354-.1266341 1.54072.3271378 2.9759.6753818 3.91512.854776 2.3058 2.131676 4.4427 4.036466 6.7327 2.31107 2.7596 5.09174 4.9387 8.26813 6.4742 1.2136.5751 2.8335 1.2558 4.6433 1.3718.1108.0053.2269.0106.3324.0106 1.2188 0 2.2425-.438 3.0445-1.3086.0053-.0105.0158-.0158.0211-.0263.2744-.3325.5909-.6332.9234-.9551.2268-.2163.459-.4432.6859-.6806.5224-.5435.7967-1.1767.7967-1.8257 0-.6543-.2796-1.2821-.8125-1.8098zm1.889 5.5561c-.0053 0-.0053.0053 0 0-.2058.2216-.4169.4221-.6438.6437-.3429.3271-.6912.6701-1.0183 1.0553-.5329.5698-1.1608.8389-1.9839.8389-.0792 0-.1636 0-.2428-.0052-1.5671-.1003-3.0233-.7124-4.1156-1.2347-2.9864-1.4458-5.6088-3.4983-7.78796-6.0996-1.79926-2.1686-3.00229-4.1736-3.79902-6.3264-.49071-1.31383-.67011-2.33745-.59096-3.30304.05276-.61734.2902-1.12915.72814-1.5671l1.79926-1.79926c.25855-.24271.53292-.37462.80202-.37462.33241 0 .60151.2005.77036.36935.00527.00527.01055.01055.01582.01583.32187.30075.6279.61206.94976.94448.16357.16884.33241.33769.50126.51181l1.44046 1.44046c.5593.5593.5593 1.07639 0 1.63569-.15301.15302-.30075.30604-.45377.45378-.44322.45377-.86533.87588-1.32438 1.28744-.01055.01056-.02111.01583-.02638.02638-.45377.4538-.36935.897-.27438 1.1978.00528.0158.01056.0316.01583.0474.37463.9076.90227 1.7624 1.70429 2.7807l.00527.0053c1.4563 1.794 2.99178 3.1922 4.68548 4.2633.2163.1372.4379.248.649.3536.1899.0949.3693.1846.5223.2796.0212.0106.0423.0264.0634.0369.1794.0897.3482.132.5223.132.438 0 .7124-.2744.802-.3641l1.8046-1.8046c.1794-.1794.4643-.3957.7967-.3957.3272 0 .5963.2058.7598.3852.0053.0053.0053.0053.0106.0105l2.9073 2.9074c.5435.5381.5435 1.0922.0053 1.6515z"/><path d="m13.5106 5.94676c1.3825.23216 2.6383.88643 3.6408 1.88895s1.6515 2.25829 1.8889 3.64069c.0581.3483.3588.591.7018.591.0422 0 .0791-.0053.1214-.0106.3904-.0633.649-.4326.5856-.8231-.2849-1.6726-1.0764-3.19748-2.2847-4.40578s-2.7331-1.99977-4.4058-2.28469c-.3904-.06332-.7545.19523-.8231.5804-.0686.38518.1847.75981.5751.82313z"/><path d="m24.971 11.028c-.4696-2.75427-1.7676-5.26057-3.7621-7.25505-1.9945-1.99449-4.5008-3.292489-7.2551-3.7620903-.3851-.0685935-.7492.1952273-.8178.5804063-.0633.390455.1952.754524.5857.823124 2.4588.41683 4.7013 1.58292 6.4847 3.36108 1.7834 1.78343 2.9442 4.02591 3.3611 6.48473.058.3482.3588.5909.7017.5909.0422 0 .0792-.0052.1214-.0105.3852-.058.649-.4274.5804-.8126z"/></g></svg>