<svg fill="none" height="15" viewBox="0 0 15 15" width="15" xmlns="http://www.w3.org/2000/svg" xmlns:xlink="http://www.w3.org/1999/xlink"><clipPath id="a"><path d="m.755249.771667h13.6364v13.6364h-13.6364z"/></clipPath><g clip-path="url(#a)"><path d="m14.022 10.7794-1.903-1.90301c-.6796-.67964-1.835-.40776-2.1069.47575-.20386.6117-.8835.95156-1.49518.81556-1.35928-.33982-3.19431-2.10688-3.53413-3.53413-.20389-.6117.20389-1.29134.81557-1.49521.88353-.27186 1.15539-1.42724.47575-2.10689l-1.903-1.90299c-.54371-.47575-1.35928-.47575-1.83503 0l-1.29132 1.29132c-1.2913133 1.35928.13593 4.96138 3.33025 8.1557 3.19431 3.1943 6.79639 4.6895 8.15569 3.3302l1.2913-1.2913c.4758-.5437.4758-1.3593 0-1.835z" fill="#639954"/></g></svg>