<svg fill="none" height="14" viewBox="0 0 15 14" width="15" xmlns="http://www.w3.org/2000/svg" xmlns:xlink="http://www.w3.org/1999/xlink"><clipPath id="a"><path d="m.755127.271667h13.6364v13.6364h-13.6364z"/></clipPath><g clip-path="url(#a)" fill="#639954"><path d="m12.5144 3.81651c-.4804-1.55242-1.7432-2.81567-3.29565-3.296114-1.64307-.5089665-3.39125-.226092-4.72561.757114-1.32454.97641-2.11521 2.54054-2.11521 4.18394 0 1.13371.35865 2.21079 1.03692 3.11463l4.15816 5.33222 4.15819-5.33262c1.0151-1.35341 1.3007-3.08808.7832-4.75917zm-4.94139 4.44226c-1.54229 0-2.79734-1.25505-2.79734-2.79735 0-1.54229 1.25505-2.79734 2.79734-2.79734s2.79739 1.25505 2.79739 2.79734c0 1.5423-1.2551 2.79735-2.79739 2.79735z"/><path d="m7.57378 3.46808c-1.1017 0-1.9981.89108-1.9981 1.99277 0 1.1017.8964 1.9981 1.9981 1.9981 1.10169 0 1.99809-.8964 1.99809-1.9981.00003-1.10169-.8964-1.99277-1.99809-1.99277z"/></g></svg>