<svg fill="none" height="97" viewBox="0 0 293 97" width="293" xmlns="http://www.w3.org/2000/svg"><g fill="#101010"><path d="m265 17h12v58h-12z"/><path d="m265.017 47h12.012c-.019-.3309-.029-.6643-.029-1.0001 0-9.0531 7.077-16.4534 16-16.9711v-12.0119c-15.553.527-28 13.3015-28 28.983 0 .3348.006.6681.017 1.0001z"/><path clip-rule="evenodd" d="m226 75c16.016 0 29-12.9837 29-29s-12.984-29-29-29-29 12.9837-29 29 12.984 29 29 29zm0-12c9.389 0 17-7.6112 17-17 0-9.3889-7.611-17-17-17s-17 7.6111-17 17c0 9.3888 7.611 17 17 17z" fill-rule="evenodd"/><path d="m158 0h12v46h-12z"/><path d="m158 29v-12h29v12z"/><path d="m186 74.9831c-15.553-.5271-28-13.3015-28-28.9831 0-.3347 0-1 0-1h12v1c0 9.0531 7.077 16.4534 16 16.9711z"/><path d="m136 0h12v75h-12z"/><path clip-rule="evenodd" d="m97 75c16.016 0 29-12.9837 29-29s-12.984-29-29-29c-16.0163 0-29 12.9837-29 29s12.9837 29 29 29zm0-12c9.389 0 17-7.6112 17-17 0-9.3889-7.611-17-17-17-9.3889 0-17 7.6111-17 17 0 9.3888 7.6111 17 17 17z" fill-rule="evenodd"/></g><circle cx="29" cy="46" fill="#639954" r="9"/><path clip-rule="evenodd" d="m29 75c16.0163 0 29-12.9837 29-29s-12.9837-29-29-29-29 12.9837-29 29 12.9837 29 29 29zm-.0001-12c9.3889 0 17-7.6112 17-17 0-9.3889-7.6111-17-17-17-9.3888 0-17 7.6111-17 17 0 9.3888 7.6112 17 17 17z" fill="#101010" fill-rule="evenodd"/><path d="m0 46h11.9999l.0001 51h-12z" fill="#101010"/></svg>