<svg fill="none" height="44" viewBox="0 0 44 44" width="44" xmlns="http://www.w3.org/2000/svg"><rect fill="#fff" height="43" rx="21.5" stroke="#999" width="43" x=".5" y=".5"/><g fill="#999"><path d="m29.2917 32.2621c-.1129 0-.2245-.0394-.3141-.1153l-4.8644-4.1238h-10.777c-1.8396 0-3.3362-1.505-3.3362-3.3549v-9.5753c0-1.8499 1.4966-3.3548 3.3362-3.3548h17.3276c1.8396 0 3.3362 1.505 3.3362 3.3548v9.5753c0 1.8499-1.4966 3.3549-3.3362 3.3549h-.8852v3.7493c0 .1906-.1098.3638-.2817.4441-.0656.0307-.1356.0457-.2052.0457zm-15.9555-19.5445c-1.3024 0-2.362 1.0655-2.362 2.3752v9.5753c0 1.3097 1.0596 2.3753 2.362 2.3753h10.9549c.1149 0 .2261.0408.314.1153l4.1994 3.56v-3.1855c0-.2706.2181-.4898.4871-.4898h1.3722c1.3024 0 2.362-1.0656 2.362-2.3753v-9.5753c0-1.3097-1.0596-2.3752-2.362-2.3752z"/><path d="m29.8452 17.223h-15.6899c-.269 0-.4871-.2193-.4871-.4898s.2181-.4898.4871-.4898h15.6898c.269 0 .4871.2193.4871.4898s-.218.4898-.487.4898z"/><path d="m29.8452 20.3594h-15.6899c-.269 0-.4871-.2194-.4871-.4898 0-.2706.2181-.4898.4871-.4898h15.6898c.269 0 .4871.2192.4871.4898 0 .2704-.218.4898-.487.4898z"/><path d="m29.8452 23.4958h-15.6899c-.269 0-.4871-.2194-.4871-.4898 0-.2705.2181-.4898.4871-.4898h15.6898c.269 0 .4871.2192.4871.4898 0 .2704-.218.4898-.487.4898z"/></g></svg>