<svg fill="none" height="25" viewBox="0 0 25 25" width="25" xmlns="http://www.w3.org/2000/svg"><g fill="#fff"><path d="m23.5883 1.90374c-.1629-.16291-.4262-.16291-.5892 0-.1629.16292-.1629.42625 0 .58917 1.5567 1.55667 1.5567 4.08958 0 5.64667-.1629.16291-.1629.42625 0 .58916.0813.08125.188.12209.2946.12209.1067 0 .2134-.04084.2946-.12209 1.8817-1.88125 1.8817-4.94333 0-6.825z"/><path d="m21.8338 2.85208c-.1629-.16292-.4263-.16292-.5892 0-.1629.16291-.1629.42625 0 .58916.5154.51542.7992 1.20209.7992 1.93292s-.2838 1.41708-.7992 1.9325c-.1629.16292-.1629.42625 0 .58917.0813.08125.1879.12208.2946.12208s.2133-.04083.2946-.12208c.6729-.6725 1.0433-1.56834 1.0433-2.52167s-.37-1.84958-1.0433-2.52208z"/><path d="m2.0009 2.49291c.16292-.16292.16292-.42625 0-.58917-.16291-.16291-.42625-.16291-.58916 0-1.881668 1.88167-1.881668 4.94334 0 6.825.08125.08125.18791.12209.29458.12209s.21333-.04084.29458-.12209c.16292-.16291.16292-.42625 0-.58916-1.557079-1.55667-1.557079-4.08959 0-5.64667z"/><path d="m3.75542 2.73709c-.16291-.16292-.42624-.16292-.58916 0-.67292.6725-1.04334 1.56833-1.04334 2.52166 0 .95334.37042 1.84917 1.04334 2.52209.08125.08125.18791.12208.29458.12208s.21334-.04083.29458-.12208c.16292-.16292.16292-.42625 0-.58917-.51541-.51542-.79916-1.20208-.79916-1.93292 0-.73083.28333-1.41708.79916-1.9325.16251-.1625.16251-.42625 0-.58916z"/><path d="m12.5001 22.9167c.4602 0 .8333-.3731.8333-.8334 0-.4602-.3731-.8333-.8333-.8333-.4603 0-.8334.3731-.8334.8333 0 .4603.3731.8334.8334.8334z"/><path d="m17.748 0h-10.49584c-1.01208 0-1.83541.82375-1.83541 1.83542v21.32878c0 1.0121.82333 1.8358 1.83541 1.8358h10.49544c1.0125 0 1.8358-.8237 1.8358-1.8354v-21.32918c0-1.01167-.8233-1.83542-1.8354-1.83542zm-3.9979 1.25h.4166c.23 0 .4167.18625.4167.41667 0 .23041-.1867.41666-.4167.41666h-.4166c-.23 0-.4167-.18625-.4167-.41666 0-.23042.1867-.41667.4167-.41667zm-2.9167 0h1.6667c.23 0 .4166.18625.4166.41667 0 .23041-.1866.41666-.4166.41666h-1.6667c-.23 0-.4167-.18625-.4167-.41666 0-.23042.1867-.41667.4167-.41667zm1.6667 22.5c-.9192 0-1.6667-.7475-1.6667-1.6667 0-.9191.7475-1.6666 1.6667-1.6666.9191 0 1.6666.7475 1.6666 1.6666 0 .9192-.7475 1.6667-1.6666 1.6667zm6.25-4.5833h-12.50002v-15.83337h12.50002z"/></g></svg>