<svg fill="none" height="15" viewBox="0 0 16 15" width="16" xmlns="http://www.w3.org/2000/svg"><path clip-rule="evenodd" d="m9.30472 5.62043c.05134.1576.22726.2855.39299.2855l5.24879.0003c.1658 0 .1916.07897.0574.17655l-4.2464 3.0848c-.1342.09758-.2014.30441-.1501.46205l1.6218 4.99187c.0514.1576-.0159.2065-.1501.109l-4.24636-3.0851c-.13418-.0976-.35158-.0976-.48576 0l-4.24639 3.0848c-.13419.0975-.20144.0486-.1501-.109l1.62179-4.99187c.05134-.15763-.01592-.36447-.1501-.46205l-4.246394-3.0848c-.1341833-.09758-.1083661-.17655.057359-.17655h5.249125c.16572 0 .34164-.12786.39298-.2855l1.62183-4.992132c.05134-.157636.13418-.157636.18552 0zm-.37094.57996c.04023.12351.1781.22376.30799.22376l4.11363.00023c.1298 0 .1501.06188.0449.13836l-3.328 2.41761c-.10511.07648-.15783.23858-.11759.36212l1.27109 3.91223c.0402.1235-.0125.1619-.1177.0854l-3.32794-2.4179c-.10516-.0764-.27554-.0764-.3807 0l-3.32797 2.4176c-.10516.0765-.15788.0382-.11764-.0854l1.27103-3.91216c.04023-.12354-.01248-.28564-.11764-.36212l-3.32797-2.41761c-.10516-.07648-.08493-.13836.04495-.13836h4.11383c.12988 0 .26775-.10022.30799-.22376l1.27105-3.91242c.04024-.12354.10517-.12354.1454 0z" fill="#999" fill-rule="evenodd"/></svg>