<svg fill="none" height="16" viewBox="0 0 16 16" width="16" xmlns="http://www.w3.org/2000/svg" xmlns:xlink="http://www.w3.org/1999/xlink"><clipPath id="a"><path d="m.834961.649292h15v15h-15z"/></clipPath><g clip-path="url(#a)"><path d="m10.4429 6.4099c-.1657 0-.3416-.1279-.3929-.2855l-1.62216-4.99213c-.05134-.157641-.13418-.157641-.18552 0l-1.62183 4.99213c-.05134.15763-.22726.2855-.39298.2855h-5.249126c-.165725 0-.191542.07897-.057359.17655l4.246385 3.0848c.13419.09758.20145.30441.15011.46205l-1.62179 4.9918c-.05134.1577.01591.2066.1501.109l4.24639-3.0848c.13418-.0976.35158-.0976.48576 0l4.24642 3.0851c.1342.0976.2014.0487.1501-.109l-1.6219-4.9918c-.0513-.15764.016-.36447.1501-.46205l4.2464-3.08481c.1342-.09758.1084-.17654-.0573-.17654h-5.2489z" fill="#f2c745"/></g></svg>