<svg fill="none" height="21" viewBox="0 0 20 21" width="20" xmlns="http://www.w3.org/2000/svg" xmlns:xlink="http://www.w3.org/1999/xlink"><clipPath id="a"><path d="m0 .902344h20v20h-20z"/></clipPath><g clip-path="url(#a)"><path d="m10 20.9023c5.5228 0 10-4.4771 10-10 0-5.5228-4.4772-9.999956-10-9.999956-5.52285 0-10 4.477156-10 9.999956 0 5.5229 4.47715 10 10 10z" fill="#039be5"/><path d="m4.57654 10.6859 9.64166-3.71755c.4475-.16167.8383.10917.6933.78583l.0009-.00083-1.6417 7.73415c-.1217.5484-.4475.6817-.9033.4234l-2.50003-1.8425-1.20583 1.1616c-.13334.1334-.24583.2459-.50417.2459l.1775-2.5442 4.63333-4.18585c.2017-.1775-.045-.2775-.3108-.10083l-5.72586 3.60498-2.46833-.77c-.53584-.17-.5475-.5358.11333-.7941z" fill="#fff"/></g></svg>