<svg fill="none" height="21" viewBox="0 0 20 21" width="20" xmlns="http://www.w3.org/2000/svg" xmlns:xlink="http://www.w3.org/1999/xlink"><clipPath id="a"><path d="m0 .902344h20v20h-20z"/></clipPath><g clip-path="url(#a)"><path d="m20 10.9023c0 5.523-4.4771 10-10 10-5.52292 0-10-4.477-10-10 0-5.52287 4.47708-9.999956 10-9.999956 5.5229 0 10 4.477086 10 9.999956z" fill="#9330b2"/><path d="m19.9984 10.9882-5.0879-5.08787c-.8884-.96634-2.1622-1.57318-3.5753-1.57318h-2.67153c-2.67823 0-4.85703 2.17895-4.85703 4.85718v1.85637c0 1.2799.5188 2.5131 1.41434 3.4181v2.4527c0 .1941.08331.3763.22461.5031l3.44681 3.4268c.36361.0402.73287.0614 1.10702.0614 5.49428 0 9.95298-4.4312 9.99898-9.9146z" fill="#681f7b"/><path d="m11.3352 4.32715h-2.67153c-2.67823 0-4.85703 2.1788-4.85703 4.85702v1.85653c0 1.2798.5188 2.513 1.41434 3.418v2.4527c0 .2414.12878.4643.33768.5851.10467.0605.2214.0907.33813.0907.11658 0 .23315-.0301.33752-.0903l2.7739-1.5992h2.32699c2.6782 0 4.857-2.1788 4.857-4.857v-1.85653c0-2.67822-2.1788-4.85702-4.857-4.85702zm3.8228 6.78955c0 2.0377-1.6672 3.705-3.705 3.705h-2.17669l-3.41324 2.0897v-3.2474c-.63217-.6654-1.02219-1.5627-1.02219-2.5471v-2.00887c0-2.03766 1.66718-3.70483 3.70484-3.70483h2.90728c2.0376 0 3.705 1.66717 3.705 3.70483z" fill="#fff"/><path d="m11.3359 4.32715h-1.3359v1.07605h1.4537c2.0375 0 3.7047 1.66717 3.7047 3.70468v2.00892c0 2.0377-1.6672 3.7049-3.7047 3.7049h-1.4537v1.076h1.3359c2.6781 0 4.857-2.1789 4.857-4.857v-1.85653c0-2.67837-2.1789-4.85702-4.857-4.85702z" fill="#fff5cb"/><path d="m9.29422 7.3209c-.01328-.01313-.02457-.02869-.03342-.04639-.04364-.08774-.00793-.19424.07981-.23804.94009-.46829 2.18449-.20767 3.02579.6337.8411.84106 1.1019 2.0848.634 3.02463-.0436.0877-.1501.1234-.238.0798-.0877-.0437-.1234-.1502-.0798-.2379.4008-.80522.1675-1.88081-.5672-2.61568-.735-.73501-1.811-.96801-2.61656-.56671-.07004.03479-.15213.01908-.20462-.03341z" fill="#fff"/><path d="m12.9996 10.6949c-.0435.0875-.1503.1233-.2379.0798-.0877-.0439-.1236-.1503-.0798-.2382.4007-.80516.1672-1.88044-.5673-2.61546-.5904-.59036-1.4009-.85678-2.1146-.73059v-.35919c.8099-.11963 1.7099.18341 2.3656.83878.841.84136 1.1018 2.08511.634 3.02486z" fill="#fff5cb"/><path d="m9.69662 8.10274c-.01419-.01434-.02625-.03113-.03525-.05035-.04166-.08881-.00336-.1944.08545-.2359.64618-.30228 1.46178-.12406 2.02938.44357.5675.56763.746 1.3826.4442 2.02834-.0416.0888-.1472.1271-.236.0856-.0887-.0415-.127-.1472-.0856-.2359.2389-.51085.0888-1.16469-.3736-1.62703-.4623-.46234-1.1165-.61234-1.62793-.37308-.06958.0325-.14938.01602-.20065-.03525z" fill="#fff"/><path d="m12.2202 10.2883c-.0415.0886-.1471.1269-.2358.0854-.0886-.0415-.1274-.1471-.0859-.2357.2391-.51102.0891-1.16471-.3731-1.6269-.4321-.43197-1.0313-.59158-1.5254-.4155v-.37109c.5957-.15884 1.2808.03983 1.7761.53558.5678.56733.7459 1.3826.4441 2.02821z" fill="#fff5cb"/><path d="m10.0949 8.88211c-.0173-.01709-.0312-.03815-.0403-.06241-.0348-.09155.0113-.19409.1028-.22888.3409-.1294.7454-.02884 1.0306.25635.2852.28518.386.68954.2568 1.02996-.0346.09171-.1372.13777-.2287.103-.0917-.03479-.1378-.13718-.103-.22888.0784-.20691.0076-.46936-.1761-.65308-.1836-.18371-.4463-.25421-.6535-.17547-.0675.02548-.1407.00732-.1886-.04059z" fill="#fff"/><path d="m10.0949 8.88211c-.0173-.01709-.0312-.03815-.0403-.06241-.0348-.09155.0113-.19409.1028-.22888.3409-.1294.7454-.02884 1.0306.25635.2852.28518.386.68954.2568 1.02996-.0346.09171-.1372.13777-.2287.103-.0917-.03479-.1378-.13718-.103-.22888.0784-.20691.0076-.46936-.1761-.65308-.1836-.18371-.4463-.25421-.6535-.17547-.0675.02548-.1407.00732-.1886-.04059z" fill="#fff5cb"/><path d="m8.81344 8.57104-1.23199-1.232c-.15656-.1564-.37766-.19317-.49149-.07949l-.11902.11917c-.58044.58029-.68786 1.42639-.21637 2.00134.58518.71324 1.23627 1.43584 1.86219 2.03784.60196.6259 1.32461 1.277 2.03784 1.8622.5749.4715 1.421.364 2.0013-.2162l.1192-.1192c.1137-.1137.0769-.335-.0797-.4914l-1.232-1.232c-.2923-.2925-.4852-.252-.599-.1384 0 0-.1554.158-.1837.1906v-.0004c-.1108.1109-.3914.1356-.6449-.0231-.23069-.1446-.46949-.3546-.68403-.5671-.21255-.2146-.42251-.4534-.56717-.68409-.15869-.25345-.13397-.53406-.02304-.64484h-.00046c.03266-.02838.19059-.18371.19059-.18371.11383-.11383.15411-.30671-.13825-.59922z" fill="#fff"/><path d="m12.7759 12.9441-.1193.1193c-.5803.5803-1.4266.6876-2.0014.2161-.2188-.1793-.4384-.3652-.6552-.5545v-1.4989c.0121.0081.0246.0157.0366.0235.2532.1587.5341.1337.6449.0229v.0009c.0282-.0331.1837-.1907.1837-.1907.1137-.114.3067-.1543.5989.1382l1.232 1.232c.1564.1564.1935.3777.0798.4912z" fill="#fff5cb"/></g></svg>