<svg fill="none" height="31" viewBox="0 0 94 31" width="94" xmlns="http://www.w3.org/2000/svg" xmlns:xlink="http://www.w3.org/1999/xlink"><clipPath id="a"><path d="m.384766.154785h93v30h-93z"/></clipPath><g clip-path="url(#a)"><g fill="#00579f"><path d="m40.6844 29.7218h-7.5336l4.712-29.04077h7.5333z"/><path d="m67.995 1.39105c-1.4859-.587604-3.8428-1.236387-6.7571-1.236387-7.4397 0-12.6787 3.954287-12.7108 9.607727-.0618 4.17111 3.7509 6.48781 6.6026 7.87861 2.9147 1.4211 3.9054 2.3487 3.9054 3.6155-.0296 1.9455-2.3552 2.8423-4.5242 2.8423-3.0078 0-4.6194-.4623-7.0685-1.5447l-.9921-.464-1.0542 6.519c1.7669.8023 5.0223 1.5144 8.4021 1.5456 7.9048 0 13.0512-3.8931 13.1121-9.9178.0301-3.3059-1.9832-5.839-6.3237-7.909-2.6349-1.3287-4.2486-2.2247-4.2486-3.58427.0309-1.23597 1.3648-2.50191 4.3392-2.50191 2.4492-.06201 4.2487.52477 5.6119 1.11196l.6814.30838z"/><path d="m78.0076 19.4337c.6204-1.6684 3.0078-8.1254 3.0078-8.1254-.0313.062.6192-1.69913.9912-2.78029l.5265 2.50229s1.4266 6.9514 1.7364 8.4034c-1.1774 0-4.7739 0-6.2619 0zm9.2993-18.75267h-5.8272c-1.797 0-3.1623.52477-3.9376 2.40953l-11.1903 26.63084h7.9048s1.3014-3.5843 1.5812-4.3563h9.6726c.2162 1.0196.8989 4.3563.8989 4.3563h6.9754z"/><path d="m26.8586.68103-7.3779 19.80307-.8063-4.0163c-1.364-4.6343-5.6419-9.66933-10.41573-12.17289l6.75793 25.39609h7.9666l11.8416-29.00997z"/></g><path d="m12.6297.68103h-12.120933l-.124001.58678c9.455074 2.40994 15.716934 8.219 18.289734 15.20119l-2.635-13.34683c-.4338-1.85477-1.7669-2.379957-3.4098-2.44114z" fill="#faa61a"/></g></svg>