<?xml version="1.0" standalone="no"?>
<!DOCTYPE svg PUBLIC "-//W3C//DTD SVG 20010904//EN"
 "http://www.w3.org/TR/2001/REC-SVG-20010904/DTD/svg10.dtd">
<svg version="1.0" xmlns="http://www.w3.org/2000/svg"
 width="512.000000pt" height="512.000000pt" viewBox="0 0 512.000000 512.000000"
 preserveAspectRatio="xMidYMid meet">

<g transform="translate(0.000000,512.000000) scale(0.100000,-0.100000)"
fill="#000000" stroke="none">
<path d="M2400 5109 c-1226 -75 -2223 -1013 -2376 -2234 -21 -170 -21 -460 0
-630 145 -1162 1059 -2076 2221 -2221 170 -21 460 -21 630 0 1162 145 2076
1059 2221 2221 21 170 21 460 0 630 -71 568 -324 1085 -730 1491 -521 521
-1229 789 -1966 743z m196 -1770 c106 -15 144 -34 172 -89 l24 -45 -6 -311
c-4 -193 -2 -332 4 -365 13 -69 38 -103 79 -107 26 -3 40 6 92 55 111 105 281
386 388 641 26 61 54 110 69 122 23 19 41 20 361 20 317 0 338 -1 369 -20 27
-17 32 -25 32 -60 0 -93 -93 -256 -309 -544 -241 -321 -260 -357 -224 -424 10
-18 106 -121 213 -230 219 -221 309 -338 317 -415 7 -56 -7 -81 -60 -109 -41
-22 -50 -23 -347 -23 l-305 0 -53 27 c-78 41 -123 80 -250 222 -192 214 -265
237 -332 105 -19 -35 -29 -89 -47 -248 -9 -85 -64 -111 -238 -111 -272 0 -496
66 -708 208 -278 186 -588 620 -905 1270 -117 240 -131 291 -92 327 20 18 42
21 274 28 138 4 269 5 291 2 66 -9 100 -37 132 -107 154 -345 334 -638 441
-719 86 -65 129 -21 153 157 14 109 6 386 -14 462 -20 76 -73 125 -151 141
-39 9 -42 22 -11 59 34 41 96 69 175 80 93 13 374 14 466 1z"/>
</g>
</svg>
