<svg fill="none" height="21" viewBox="0 0 20 21" width="20" xmlns="http://www.w3.org/2000/svg" xmlns:xlink="http://www.w3.org/1999/xlink"><clipPath id="a"><path d="m0 .902344h20v20h-20z"/></clipPath><g clip-path="url(#a)"><path d="m10.0025.902344h-.005c-5.51375 0-9.9975 4.484996-9.9975 9.999956 0 2.1875.705 4.215 1.90375 5.8613l-1.24625 3.715 3.84375-1.2288c1.58125 1.0475 3.4675 1.6525 5.50125 1.6525 5.5137 0 9.9975-4.4862 9.9975-10 0-5.51371-4.4838-9.999956-9.9975-9.999956z" fill="#4caf50"/><path d="m15.8207 15.0241c-.2412.6812-1.1987 1.2462-1.9625 1.4112-.5225.1113-1.205.2-3.5025-.7525-2.93875-1.2175-4.83125-4.2037-4.97875-4.3975-.14125-.1937-1.1875-1.58124-1.1875-3.01624s.72875-2.13375 1.0225-2.43375c.24125-.24625.64-.35875 1.0225-.35875.12375 0 .235.00625.335.01125.29375.0125.44125.03.635.49375.24125.58125.82875 2.01625.89875 2.16375.07125.1475.1425.3475.0425.54125-.09375.2-.17625.28875-.32375.45875s-.2875.3-.435.4825c-.135.15875-.2875.32875-.1175.62249.17.2875.7575 1.2463 1.6225 2.0163 1.11625.9937 2.02125 1.3112 2.34505 1.4462.2412.1.5287.0763.705-.1112.2237-.2413.5-.6413.7812-1.035.2-.2825.4525-.3175.7175-.2175.27.0937 1.6988.8 1.9925.9462.2938.1475.4875.2175.5588.3413.07.1237.07.705-.1713 1.3875z" fill="#fafafa"/></g></svg>