<svg fill="none" height="31" viewBox="0 0 30 31" width="30" xmlns="http://www.w3.org/2000/svg"><path d="m28.4683 8.02981c-.3241-1.20489-1.2741-2.1547-2.4788-2.47914-2.2008-.60218-11.0045-.60218-11.0045-.60218s-8.8033 0-11.00417.57935c-1.18155.3241-2.1547 1.29725-2.47879 2.50197-.579188 2.20069-.579188 6.76469-.579188 6.76469s0 4.5869.579188 6.7646c.32444 1.2047 1.27407 2.1545 2.47896 2.479 2.22387.6023 11.0043.6023 11.0043.6023s8.8034 0 11.0042-.5793c1.2049-.3243 2.1547-1.2741 2.4792-2.4788.579-2.2009.579-6.7647.579-6.7647s.0232-4.5871-.5794-6.78779zm-16.2862 10.98099v-8.4327l7.3207 4.2164z" fill="#e55555"/></svg>