<svg fill="none" height="41" viewBox="0 0 41 41" width="41" xmlns="http://www.w3.org/2000/svg" xmlns:xlink="http://www.w3.org/1999/xlink"><clipPath id="a"><path d="m10.3013 10.0591h20v20h-20z"/></clipPath><path d="m.80127.559082h39v39h-39z" stroke="#333"/><g clip-path="url(#a)"><path d="m29.281 15.3718c-.2161-.8032-.8494-1.4364-1.6525-1.6527-1.4673-.4015-7.3364-.4015-7.3364-.4015s-5.8688 0-7.3361.3863c-.7877.216-1.4365.8648-1.6525 1.6679-.3861 1.4672-.3861 4.5098-.3861 4.5098s0 3.058.3861 4.5098c.2163.8031.8494 1.4363 1.6526 1.6526 1.4826.4016 7.3363.4016 7.3363.4016s5.8688 0 7.3361-.3862c.8032-.2162 1.4364-.8494 1.6527-1.6526.386-1.4672.386-4.5097.386-4.5097s.0155-3.0581-.3862-4.5253zm-10.8575 7.3207v-5.6218l4.8805 2.8109z" fill="#333"/></g></svg>