<svg width="49" height="71" viewBox="0 0 49 71" fill="none" xmlns="http://www.w3.org/2000/svg">
<path d="M47.4319 68.328H21.1987L8.84824 51.5997C8.84708 51.598 8.84621 51.5963 8.84505 51.5946C8.83052 51.574 8.81527 51.5539 8.79929 51.5343C4.60597 46.4133 2.3894 40.2795 2.3894 33.7959C2.3894 26.4323 5.31878 19.4059 10.6377 14.0114C15.6845 8.89319 22.4389 5.68099 29.7548 4.89417C30.0908 6.12341 31.0985 7.10094 32.3857 7.4601V13.3134C27.0605 15.0055 22.4089 17.8919 18.889 21.6993C15.1614 25.7316 12.9878 30.4821 12.6033 35.4371C12.4505 37.4066 12.579 39.4461 12.9855 41.4981C14.3382 48.3507 18.5749 54.3961 23.779 56.8992C25.5117 57.733 27.3878 58.295 29.2911 58.6621C30.2296 58.8432 31.1852 58.99 32.1422 59.0473C34.062 59.1623 35.9908 59.0512 37.8672 58.6397C39.8774 58.1988 41.7892 57.4144 43.5142 56.3489C44.8865 55.5011 46.1392 54.4831 47.2444 53.3413C47.3573 53.2247 47.4685 53.1069 47.5784 52.9876C48.6009 51.8769 48.8995 50.3237 48.3578 48.9338C48.3578 48.9338 34.5677 13.5438 34.5646 13.5385V7.45997C36.1535 7.01673 37.3161 5.63122 37.3161 3.99388C37.3161 2.00052 35.5931 0.378906 33.4752 0.378906C31.7936 0.378906 30.362 1.40156 29.8432 2.82043C21.881 3.59931 14.52 7.05925 9.04072 12.6163C3.34639 18.3913 0.210449 25.913 0.210449 33.7958C0.210449 40.7223 2.57432 47.2769 7.04683 52.7533L12.9989 60.8152L8.52779 68.328H4.16858C3.56676 68.328 3.07911 68.787 3.07911 69.3534C3.07911 69.9198 3.56676 70.3788 4.16858 70.3788H20.6276C20.6285 70.3788 20.6292 70.3789 20.6301 70.3789C20.6307 70.3789 20.6314 70.3788 20.632 70.3788H47.4321C48.0339 70.3788 48.5215 69.9198 48.5215 69.3534C48.5215 68.787 48.0336 68.328 47.4319 68.328V68.328ZM14.7766 35.5864C15.3703 27.9316 20.7794 20.928 28.7482 16.9998C28.1864 17.6195 27.6052 18.305 27.022 19.0568C26.6671 19.5142 26.7733 20.1556 27.2594 20.4895C27.4531 20.6228 27.678 20.6869 27.901 20.6869C28.237 20.6869 28.5685 20.5411 28.7817 20.2661C29.581 19.2361 30.3735 18.3407 31.1107 17.5771C29.5847 22.3344 28.4868 28.6307 29.4735 35.8984C30.2691 41.7589 32.2011 46.6978 34.4024 50.6642C33.4675 50.6307 32.5349 50.5124 31.619 50.3049C28.6537 49.6331 26.0418 48.1143 24.0856 45.9833C23.1843 43.298 22.6067 40.2165 22.6875 36.7877C22.7953 32.2074 24.0684 27.7973 26.4714 23.68C26.7611 23.1836 26.5685 22.5603 26.0412 22.2875C25.5139 22.0146 24.8513 22.1962 24.5617 22.6925C21.988 27.1018 20.6246 31.8288 20.5091 36.7423C20.4715 38.3432 20.5682 39.8728 20.7686 41.3276C19.4878 40.1515 17.6422 39.6 15.7978 39.9422L14.9528 40.099C14.724 38.5679 14.6626 37.0541 14.7766 35.5864V35.5864ZM45.5624 51.8239C44.2765 53.0731 42.4285 54.6165 40.3133 55.6382C39.5608 54.701 38.7768 53.6409 37.9978 52.46C40.0995 52.0943 42.1337 51.3529 43.9668 50.2549C44.109 50.1697 44.2607 50.1018 44.4174 50.0527C45.1803 49.8144 45.5959 50.3301 45.7052 50.4938C45.9383 50.8432 46.0233 51.3763 45.5624 51.8239ZM38.2238 56.4313C38.1657 56.4474 38.1079 56.4626 38.0501 56.4779C38.0212 56.4856 37.992 56.4938 37.9631 56.5013C35.4656 57.1478 33.3163 57.0569 32.3838 57.0063C32.3485 57.0044 31.5931 56.9589 30.564 56.7961C29.3291 55.478 27.4729 53.224 25.8717 50.1633C27.4531 51.1429 29.2182 51.8708 31.1091 52.2993C32.5876 52.6342 34.1043 52.7692 35.6121 52.7123C36.4824 54.0977 37.3688 55.3378 38.2238 56.4313V56.4313ZM24.3506 54.8605C19.504 52.2924 16.5514 47.0658 15.3483 42.1161C18.9054 41.2947 20.3242 44.0528 21.8335 46.6163C23.6639 49.7254 24.7996 53.0455 27.0808 55.9808C26.149 55.6845 25.2106 55.3157 24.3506 54.8605ZM45.7 48.0681C45.0776 47.8954 44.3971 47.8984 43.7311 48.1065C43.4046 48.2085 43.0906 48.3491 42.7972 48.5249C40.9731 49.6174 38.9215 50.3045 36.8155 50.5607C34.5206 46.6439 32.4506 41.6496 31.6347 35.6387C30.6096 28.0872 31.9448 21.6349 33.5968 16.9841L45.7 48.0681ZM33.4752 2.42968C34.3916 2.42968 35.1371 3.13146 35.1371 3.99388C35.1371 4.8563 34.3915 5.55808 33.4752 5.55808C32.5588 5.55808 31.8132 4.8563 31.8132 3.99388C31.8132 3.13146 32.5587 2.42968 33.4752 2.42968V2.42968ZM14.3816 62.6884L18.5453 68.328H11.0253L14.3816 62.6884Z" fill="black"/>
</svg>
