<svg width="31" height="31" viewBox="0 0 31 31" fill="none" xmlns="http://www.w3.org/2000/svg">
<g clip-path="url(#clip0)">
<path d="M29.7316 7.91067C29.5385 7.79621 29.2996 7.79174 29.1025 7.89925L22.2192 11.6577V9.40258C22.2172 7.64824 20.7956 6.2266 19.0412 6.22461H3.22093C1.4666 6.2266 0.044955 7.64824 0.0429688 9.40258V21.9506C0.044955 23.7049 1.4666 25.1266 3.22093 25.1285H19.0412C20.7956 25.1266 22.2172 23.7049 22.2192 21.9506V19.7364L29.1027 23.4949C29.2996 23.6024 29.5387 23.5982 29.7316 23.4837C29.9248 23.369 30.043 23.1612 30.043 22.937V8.45713C30.043 8.23269 29.9245 8.02513 29.7316 7.91067V7.91067ZM20.9475 21.9508C20.9465 23.0035 20.0935 23.8564 19.0408 23.8576H3.22093C2.16823 23.8564 1.3154 23.0035 1.31416 21.9508V9.40258C1.3154 8.35012 2.16823 7.49704 3.22093 7.4958H19.0412C20.0937 7.49704 20.9468 8.35012 20.948 9.40258L20.9475 21.9508ZM28.7718 21.8659L22.2192 18.2882V13.1059L28.7718 9.52845V21.8659Z" fill="black"/>
</g>
<defs>
<clipPath id="clip0">
<rect width="30" height="30" fill="white" transform="translate(0.0429688 0.694946)"/>
</clipPath>
</defs>
</svg>
