<svg width="31" height="31" viewBox="0 0 31 31" fill="none" xmlns="http://www.w3.org/2000/svg">
<g clip-path="url(#clip0)">
<path d="M28.2068 7.65526H19.9309C19.0754 7.65526 18.3792 6.95906 18.3792 6.10354C18.3792 4.67751 17.219 3.51733 15.793 3.51733H7.51711C6.09107 3.51733 4.9309 4.67751 4.9309 6.10354C4.9309 6.95906 4.23469 7.65526 3.37918 7.65526C1.95314 7.65526 0.792969 8.81544 0.792969 10.2415V24.7242C0.792969 26.1503 1.95314 27.3104 3.37918 27.3104H28.2068C29.6328 27.3104 30.793 26.1503 30.793 24.7242V10.2415C30.793 8.81544 29.6328 7.65526 28.2068 7.65526ZM29.7585 24.7242C29.7585 25.5797 29.0623 26.276 28.2068 26.276H3.37918C2.52366 26.276 1.82745 25.5797 1.82745 24.7242V10.2415C1.82745 9.38595 2.52366 8.68975 3.37918 8.68975C4.80521 8.68975 5.96538 7.52958 5.96538 6.10354C5.96538 5.24802 6.66159 4.55182 7.51711 4.55182H15.793C16.6485 4.55182 17.3447 5.24802 17.3447 6.10354C17.3447 7.52958 18.5049 8.68975 19.9309 8.68975H28.2068C29.0623 8.68975 29.7585 9.38595 29.7585 10.2415V24.7242Z" fill="black"/>
<path d="M11.6548 9.72412C7.94722 9.72412 4.93066 12.7407 4.93066 16.4483C4.93066 20.1558 7.94722 23.1724 11.6548 23.1724C15.3624 23.1724 18.3789 20.1558 18.3789 16.4483C18.3789 12.7407 15.3624 9.72412 11.6548 9.72412ZM11.6548 22.1379C8.51773 22.1379 5.96515 19.5853 5.96515 16.4483C5.96515 13.3112 8.51773 10.7586 11.6548 10.7586C14.7919 10.7586 17.3445 13.3112 17.3445 16.4483C17.3445 19.5853 14.7919 22.1379 11.6548 22.1379Z" fill="black"/>
<path d="M25.1033 9.72412C24.2478 9.72412 23.5516 10.4203 23.5516 11.2758C23.5516 12.1314 24.2478 12.8276 25.1033 12.8276C25.9588 12.8276 26.655 12.1314 26.655 11.2758C26.655 10.4203 25.9588 9.72412 25.1033 9.72412ZM25.1033 11.7931C24.8178 11.7931 24.5861 11.5614 24.5861 11.2758C24.5861 10.9903 24.8178 10.7586 25.1033 10.7586C25.3888 10.7586 25.6205 10.9903 25.6205 11.2758C25.6205 11.5614 25.3888 11.7931 25.1033 11.7931Z" fill="black"/>
</g>
<defs>
<clipPath id="clip0">
<rect width="30" height="30" fill="white" transform="translate(0.792969 0.413818)"/>
</clipPath>
</defs>
</svg>
