<svg width="21" height="29" viewBox="0 0 21 29" fill="none" xmlns="http://www.w3.org/2000/svg">
<path d="M19.6601 27.787H9.07864L4.09695 21.0394C4.09648 21.0387 4.09613 21.038 4.09566 21.0373C4.0898 21.029 4.08365 21.0209 4.0772 21.013C2.38578 18.9474 1.4917 16.4733 1.4917 13.858C1.4917 10.8878 2.6733 8.05366 4.81876 5.87772C6.85442 3.81324 9.57891 2.51756 12.5299 2.20019C12.6654 2.69602 13.0719 3.09032 13.591 3.23519V5.5962C11.4431 6.2787 9.56678 7.44296 8.147 8.97875C6.64343 10.6052 5.76669 12.5214 5.61159 14.52C5.54995 15.3145 5.60181 16.1371 5.76575 16.9648C6.31138 19.7289 8.02032 22.1674 10.1194 23.177C10.8183 23.5133 11.5751 23.74 12.3428 23.8881C12.7213 23.9611 13.1068 24.0204 13.4928 24.0435C14.2672 24.0898 15.0452 24.0451 15.8021 23.8791C16.6129 23.7012 17.384 23.3848 18.0798 22.955C18.6334 22.6131 19.1387 22.2024 19.5845 21.7419C19.63 21.6949 19.6749 21.6473 19.7192 21.5992C20.1316 21.1512 20.2521 20.5247 20.0336 19.9641C20.0336 19.9641 14.4712 5.68912 14.47 5.68697V3.23513C15.1109 3.05635 15.5798 2.49749 15.5798 1.83705C15.5798 1.033 14.8848 0.378906 14.0305 0.378906C13.3522 0.378906 12.7748 0.791406 12.5655 1.36372C9.35385 1.67789 6.38473 3.0735 4.17458 5.315C1.87771 7.64441 0.612793 10.6784 0.612793 13.858C0.612793 16.6519 1.56629 19.2958 3.37033 21.5047L5.77114 24.7566L3.96769 27.787H2.20935C1.9666 27.787 1.7699 27.9721 1.7699 28.2006C1.7699 28.429 1.9666 28.6142 2.20935 28.6142H8.8483C8.84866 28.6142 8.84895 28.6142 8.8493 28.6142C8.84953 28.6142 8.84983 28.6142 8.85006 28.6142H19.6602C19.9029 28.6142 20.0996 28.429 20.0996 28.2006C20.0996 27.9721 19.9028 27.787 19.6601 27.787V27.787ZM6.48821 14.5802C6.72768 11.4926 8.90954 8.66761 12.1238 7.08312C11.8972 7.33311 11.6628 7.60961 11.4275 7.91287C11.2844 8.09733 11.3272 8.35608 11.5233 8.49075C11.6014 8.54452 11.6921 8.57038 11.7821 8.57038C11.9176 8.57038 12.0513 8.51154 12.1373 8.40064C12.4597 7.98516 12.7794 7.62401 13.0768 7.31601C12.4612 9.2349 12.0184 11.7746 12.4164 14.7061C12.7373 17.07 13.5166 19.0622 14.4045 20.6621C14.0274 20.6486 13.6512 20.6008 13.2818 20.5171C12.0857 20.2462 11.0321 19.6335 10.2431 18.774C9.87955 17.6908 9.64658 16.4479 9.67916 15.0648C9.72264 13.2173 10.2362 11.4384 11.2055 9.77766C11.3223 9.57742 11.2446 9.32601 11.0319 9.21599C10.8192 9.10592 10.552 9.17915 10.4351 9.37933C9.39703 11.1579 8.84707 13.0646 8.80049 15.0465C8.78532 15.6922 8.82434 16.3092 8.90514 16.896C8.38852 16.4217 7.64409 16.1992 6.90012 16.3372L6.55929 16.4005C6.467 15.7829 6.44221 15.1722 6.48821 14.5802V14.5802ZM18.906 21.1298C18.3873 21.6337 17.6419 22.2563 16.7887 22.6684C16.4852 22.2903 16.169 21.8627 15.8548 21.3864C16.7025 21.2389 17.523 20.9399 18.2624 20.497C18.3198 20.4626 18.381 20.4352 18.4442 20.4154C18.7519 20.3193 18.9196 20.5273 18.9636 20.5933C19.0577 20.7343 19.0919 20.9493 18.906 21.1298ZM15.9459 22.9883C15.9225 22.9948 15.8992 23.0009 15.8759 23.0071C15.8642 23.0102 15.8524 23.0135 15.8408 23.0165C14.8334 23.2773 13.9664 23.2406 13.5903 23.2202C13.576 23.2195 13.2714 23.2011 12.8562 23.1354C12.3581 22.6037 11.6094 21.6946 10.9635 20.46C11.6014 20.8551 12.3134 21.1487 13.0761 21.3216C13.6725 21.4567 14.2843 21.5111 14.8925 21.4882C15.2435 22.047 15.601 22.5472 15.9459 22.9883V22.9883ZM10.35 22.3547C8.39508 21.3188 7.20411 19.2106 6.71884 17.2141C8.15362 16.8827 8.7259 17.9953 9.33469 19.0293C10.073 20.2834 10.5311 21.6226 11.4513 22.8066C11.0754 22.6871 10.6969 22.5383 10.35 22.3547ZM18.9615 19.6149C18.7105 19.5452 18.436 19.5465 18.1673 19.6304C18.0357 19.6715 17.909 19.7282 17.7906 19.7991C17.0549 20.2398 16.2274 20.517 15.3779 20.6203C14.4522 19.0404 13.6172 17.0259 13.2881 14.6014C12.8746 11.5554 13.4132 8.95277 14.0795 7.07678L18.9615 19.6149ZM14.0305 1.20611C14.4002 1.20611 14.7009 1.48918 14.7009 1.83705C14.7009 2.18491 14.4001 2.46798 14.0305 2.46798C13.6609 2.46798 13.3601 2.18491 13.3601 1.83705C13.3601 1.48918 13.6608 1.20611 14.0305 1.20611V1.20611ZM6.3289 25.5121L8.00836 27.787H4.97509L6.3289 25.5121Z" fill="black"/>
</svg>
